<svg width="82" height="81" viewBox="0 0 82 81" fill="none" xmlns="http://www.w3.org/2000/svg">
  <path d="M42.242 16.3158L42.1954 16.1106C41.9793 15.1728 41.8734 14.6997 41.9285 13.5232L41.9412 13.293L42.1742 13.3055C46.1143 13.54 50.0247 14.1596 53.7995 15.1393L55.5662 15.5998L53.7402 15.5915C48.8977 15.5705 47.2751 15.6291 42.458 16.2906L42.2462 16.32L42.242 16.3158ZM42.3775 13.7744C42.3521 14.6453 42.4369 15.0932 42.5978 15.805C46.593 15.2607 48.3851 15.1393 51.804 15.1267C48.7198 14.4317 45.5593 13.9796 42.3775 13.7744Z" fill="#1D1329"/>
  <path d="M43.4551 18.8736L43.3534 18.7062C42.8281 17.8604 42.4383 16.9896 42.1968 16.1188L42.1248 15.8634L42.3875 15.8299C46.7385 15.2773 48.5391 15.0428 53.7374 15.1265L55.6524 15.1558L53.784 15.5787C50.5091 16.3197 47.0944 17.3999 43.6331 18.7983L43.4509 18.8736H43.4551ZM42.718 16.2528C42.934 16.9436 43.2433 17.6302 43.6458 18.3042C46.442 17.1864 49.2042 16.2695 51.8903 15.5745H51.8691C48.1493 15.5745 46.3021 15.8006 42.7222 16.2528H42.718Z" fill="#1D1329"/>
  <path d="M45.4055 21.2221L45.2615 21.0798C44.5116 20.3387 43.8719 19.5391 43.355 18.7101L43.2109 18.4798L43.4651 18.3794C46.9519 16.9726 50.3878 15.8841 53.6881 15.1389L55.154 14.8081L53.8534 15.5617C51.2139 17.094 48.422 18.9571 45.5623 21.1049L45.4013 21.2263L45.4055 21.2221ZM43.8973 18.6975C44.3336 19.3632 44.8548 20.0038 45.4479 20.6109C47.7992 18.8525 50.1039 17.2824 52.3197 15.9343C49.5828 16.6293 46.757 17.5546 43.8973 18.6975Z" fill="#1D1329"/>
  <path d="M47.9717 23.2112L47.7896 23.094C46.866 22.4995 46.0144 21.8213 45.2645 21.0802L45.0781 20.896L45.29 20.7369C48.1624 18.5808 50.967 16.7051 53.6234 15.1644L54.7165 14.5322L53.92 15.5077C52.1236 17.7099 50.1663 20.2471 48.1031 23.0396L47.9717 23.2154V23.2112ZM45.7814 20.9379C46.4127 21.5366 47.1075 22.0934 47.8574 22.5874C49.5732 20.268 51.217 18.1244 52.7549 16.2069C50.5095 17.5634 48.1709 19.1502 45.7814 20.9379Z" fill="#1D1329"/>
  <path d="M51.031 24.6971L50.8022 24.6092C49.7473 24.2073 48.7347 23.6965 47.7857 23.0894L47.5781 22.9596L47.7222 22.7629C49.7896 19.962 51.7512 17.4206 53.5518 15.2101L54.272 14.3267L53.9543 15.4152C53.1662 18.1324 52.2045 21.1761 51.0988 24.4627L51.0225 24.6887L51.031 24.6971ZM48.2475 22.8382C49.0398 23.3281 49.8786 23.7509 50.7429 24.0942C51.6665 21.3394 52.4884 18.7604 53.1874 16.4033C51.6368 18.3333 49.9803 20.4937 48.2475 22.8382Z" fill="#1D1329"/>
  <path d="M54.3856 25.5221L54.123 25.4844C53.5849 25.4049 53.0384 25.2918 52.4919 25.1537C51.9242 25.0071 51.3564 24.8229 50.8014 24.6136L50.5939 24.534L50.6616 24.3247C51.7632 21.0465 52.7249 18.007 53.5087 15.294L53.8349 14.1636L53.962 15.3317C54.2882 18.3545 54.428 21.6955 54.3856 25.2583V25.5221ZM51.1743 24.2619C51.6488 24.4336 52.1275 24.5843 52.6105 24.7099C53.0511 24.8229 53.4917 24.9192 53.9281 24.9904C53.9577 22.0011 53.8561 19.1751 53.623 16.5668C52.9198 18.9281 52.0979 21.5071 51.1743 24.2619Z" fill="#1D1329"/>
  <path d="M56.1181 25.6348C55.4656 25.6348 54.8008 25.5849 54.123 25.4844L53.9235 25.4548V25.2539C53.9701 21.7077 53.8303 18.3877 53.5083 15.3816L53.3516 13.9414L53.9489 15.2644C55.3258 18.3207 56.5121 21.6952 57.4696 25.2915L57.5374 25.5511L57.2662 25.5762C56.8891 25.6097 56.5079 25.6307 56.1181 25.6307V25.6348ZM54.3938 25.0613C55.2708 25.1785 56.1266 25.2078 56.9527 25.1492C56.1562 22.1892 55.203 19.3841 54.1099 16.7925C54.3302 19.3632 54.4234 22.1348 54.3938 25.0613Z" fill="#1D1329"/>
  <path d="M57.0723 25.6017L57.0215 25.4133C56.0725 21.8378 54.8947 18.4885 53.5262 15.4531L52.7891 13.8203L53.9202 15.2145C56.2207 18.0614 58.3179 21.2266 60.1523 24.622L60.2752 24.8481L60.0337 24.9444C59.1864 25.2709 58.2586 25.4844 57.2714 25.5807L57.0765 25.5975L57.0723 25.6017ZM54.6617 16.9143C55.7166 19.464 56.6402 22.2146 57.4197 25.1076C58.1992 25.0197 58.9364 24.8564 59.6185 24.6136C58.1272 21.8755 56.4665 19.2965 54.6617 16.9185V16.9143Z" fill="#1D1329"/>
  <path d="M59.8382 25.0197L59.7407 24.8397C57.9232 21.4652 55.8388 18.3252 53.5553 15.5033L52.2461 13.8831L53.8815 15.181C56.9234 17.5925 59.7492 20.3306 62.287 23.3199L62.4352 23.4916L62.2615 23.6381C61.626 24.174 60.8762 24.6136 60.0288 24.9443L59.8382 25.0197ZM55.1991 16.8598C56.9615 19.2127 58.5884 21.7541 60.0542 24.4419C60.6982 24.174 61.2786 23.8349 61.787 23.4371C59.7619 21.0716 57.5546 18.8653 55.2033 16.8598H55.1991Z" fill="#1D1329"/>
  <path d="M62.084 23.793L61.9315 23.6172C59.4149 20.653 56.6061 17.9359 53.5896 15.5411L51.8398 14.1553L53.8395 15.1601C57.3898 16.9436 60.7198 19.0579 63.7405 21.4527L63.8888 21.5699L63.8041 21.7374C63.4313 22.4575 62.9102 23.0981 62.262 23.6465L62.084 23.7972V23.793ZM55.6104 16.6045C57.9406 18.6015 60.1309 20.7912 62.1391 23.1399C62.6136 22.7087 63.0034 22.223 63.3042 21.6871C60.9189 19.8115 58.3388 18.1075 55.6104 16.6045Z" fill="#1D1329"/>
  <path d="M63.6721 21.9802L63.4518 21.8043C60.4565 19.4305 57.1519 17.3329 53.6313 15.5661L51.6951 14.5948L53.7923 15.1391C57.5671 16.1188 61.1217 17.446 64.3584 19.0788L64.494 19.15L64.4813 19.3007C64.4135 20.1715 64.1847 20.9921 63.795 21.7331L63.6636 21.9802H63.6721ZM55.7665 16.1648C58.5119 17.672 61.1089 19.3802 63.5153 21.2642C63.778 20.6865 63.9475 20.0668 64.011 19.4095C61.4479 18.1284 58.6814 17.0399 55.7665 16.1606V16.1648Z" fill="#1D1329"/>
  <path d="M64.4646 19.6398L64.1553 19.4849C60.9482 17.8688 57.4233 16.5542 53.6824 15.5829L51.7462 15.0805L53.7459 15.1349C57.4275 15.2312 60.8889 15.6834 64.0367 16.4705L64.168 16.504L64.2019 16.6296C64.4603 17.5339 64.5578 18.4298 64.49 19.3007L64.4646 19.644V19.6398ZM55.7371 15.6792C58.6731 16.55 61.4566 17.6385 64.0452 18.9155C64.0621 18.2498 63.9774 17.5674 63.791 16.8766C61.2913 16.2569 58.5884 15.855 55.7371 15.675V15.6792Z" fill="#1D1329"/>
  <path d="M64.3078 17.0105L63.918 16.9142C60.8041 16.1313 57.3767 15.6875 53.7289 15.5912L51.9453 15.5452L53.6823 15.1391C56.97 14.3729 60.0458 13.9668 62.8207 13.9375H62.9521L63.0199 14.0464C63.5537 14.8921 63.9477 15.7629 64.1976 16.6337L64.3078 17.0147V17.0105ZM55.5337 15.2061C58.3977 15.3735 61.1134 15.7629 63.6342 16.37C63.4096 15.7043 63.0961 15.0428 62.6979 14.3939C60.4864 14.4273 58.0842 14.6995 55.5337 15.2061Z" fill="#1D1329"/>
  <path d="M52.332 15.9222L53.62 15.1603C56.2594 13.5986 58.6955 12.4096 60.8561 11.6225L60.9959 11.5723L61.1019 11.6769C61.856 12.4138 62.5042 13.2093 63.0253 14.0382L63.2414 14.3857H62.8304C60.0893 14.4192 57.0474 14.8211 53.7937 15.5789L52.3363 15.9181L52.332 15.9222ZM60.8816 12.1082C59.1361 12.7529 57.2126 13.6614 55.1452 14.817C57.7253 14.2894 60.1613 13.9964 62.4067 13.9419C61.9704 13.3056 61.462 12.6901 60.8773 12.1082H60.8816Z" fill="#1D1329"/>
  <path d="M52.7699 16.1985L53.5536 15.2189C55.3373 12.9874 56.9218 11.1368 58.2648 9.71336L58.3961 9.5752L58.5571 9.67986C59.4807 10.266 60.3365 10.9401 61.0948 11.6811L61.3533 11.9365L61.0101 12.0621C58.8748 12.8366 56.4684 14.0173 53.8502 15.5622L52.7656 16.2027L52.7699 16.1985ZM58.4724 10.1655C57.3666 11.3462 56.0999 12.8157 54.6933 14.5406C56.7862 13.36 58.735 12.4263 60.5102 11.7523C59.8874 11.1745 59.2053 10.6386 58.4724 10.1655Z" fill="#1D1329"/>
  <path d="M53.2075 16.3909L53.5126 15.2982C54.2751 12.5727 54.8513 10.2323 55.2242 8.33993L55.275 8.07198L55.5334 8.16827C56.5926 8.56601 57.6094 9.0726 58.5584 9.67549L58.7914 9.82202L58.6007 10.023C57.2662 11.4381 55.6902 13.2802 53.915 15.4992L53.2033 16.3868L53.2075 16.3909ZM55.6309 8.6958C55.3089 10.2909 54.8471 12.1875 54.2582 14.3436C55.6775 12.5978 56.9569 11.1115 58.0796 9.91413C57.3001 9.44103 56.4824 9.03073 55.6309 8.6958Z" fill="#1D1329"/>
  <path d="M53.6437 16.5586L53.5081 15.3863C53.1607 12.3845 52.6396 9.77199 51.9617 7.61166L51.8516 7.26416L52.2159 7.3144C52.7794 7.39395 53.3556 7.51118 53.9233 7.65771C54.4698 7.80006 55.0121 7.97171 55.5374 8.16849L55.7196 8.23547L55.6815 8.42387C55.3044 10.3288 54.7282 12.6817 53.9614 15.4157L53.6437 16.5502V16.5586ZM52.5125 7.82518C53.059 9.65476 53.4996 11.7858 53.8258 14.1806C54.4147 12.0161 54.8723 10.1237 55.19 8.53273C54.7367 8.36945 54.2707 8.22291 53.8046 8.1015C53.3767 7.98846 52.9404 7.89635 52.5125 7.82518Z" fill="#1D1329"/>
  <path d="M54.1339 16.7802L53.5238 15.4572C52.1342 12.4302 50.5836 9.78843 48.9101 7.60716L48.6602 7.2806L49.0711 7.23873C50.0752 7.13825 51.1301 7.16337 52.2105 7.31828L52.3545 7.33921L52.3969 7.47738C53.0832 9.66283 53.6128 12.3088 53.9602 15.3358L54.1254 16.7802H54.1339ZM49.5329 7.6574C50.8844 9.47443 52.1554 11.5845 53.3204 13.95C52.99 11.6055 52.5494 9.52467 51.9986 7.74532C51.1555 7.63647 50.3252 7.60716 49.5287 7.6574H49.5329Z" fill="#1D1329"/>
  <path d="M54.6979 16.8976L53.554 15.5035C51.2535 12.69 48.8005 10.2617 46.2627 8.2814L45.9492 8.03439L46.322 7.88785C47.1651 7.55292 48.0887 7.33521 49.0759 7.23473L49.2072 7.22217L49.2877 7.32684C50.9781 9.53741 52.5457 12.2085 53.9522 15.2648L54.7021 16.8976H54.6979ZM46.8728 8.17673C48.8979 9.7928 50.8679 11.6894 52.7448 13.8371C51.5839 11.5261 50.3257 9.47042 48.9911 7.71201C48.2412 7.79575 47.5337 7.95484 46.8728 8.18092V8.17673Z" fill="#1D1329"/>
  <path d="M55.2403 16.8345L53.5922 15.5408C50.563 13.1628 47.3856 11.1616 44.1573 9.59156L43.8438 9.44083L44.1064 9.21475C44.7377 8.67467 45.4833 8.22669 46.3222 7.89594L46.445 7.8457L46.551 7.92944C49.1141 9.93068 51.5926 12.3841 53.9142 15.2227L55.2361 16.8387L55.2403 16.8345ZM44.6826 9.33617C47.2415 10.6005 49.7581 12.1371 52.1984 13.908C50.33 11.8021 48.3769 9.94324 46.373 8.36485C45.746 8.62443 45.1825 8.95099 44.6826 9.33617Z" fill="#1D1329"/>
  <path d="M55.4296 16.3908L53.6417 15.566C49.5619 13.682 47.8714 12.9033 42.7282 11.4547L42.457 11.3793L42.5841 11.1323C42.9527 10.408 43.4653 9.75908 44.1051 9.20644L44.2195 9.10596L44.3593 9.17294C47.6215 10.7555 50.8244 12.7777 53.879 15.1767L55.4211 16.3866L55.4296 16.3908ZM43.1349 11.0946C47.2317 12.2544 49.1128 12.9954 51.9132 14.2682C49.4432 12.4721 46.8885 10.9272 44.3 9.6586C43.8297 10.0856 43.4399 10.5671 43.1349 11.0946Z" fill="#1D1329"/>
  <path d="M53.6795 15.583C49.9343 14.6075 46.0536 13.9962 42.1432 13.7618L41.9102 13.7492L41.9271 13.5189C41.9949 12.669 42.2152 11.8694 42.5838 11.1409L42.6728 10.9692L42.8592 11.0237C47.0789 12.2629 48.8191 12.7737 53.8395 15.1601L53.6795 15.5872V15.583ZM42.4143 13.318C45.5028 13.5147 48.5701 13.946 51.5697 14.6033C48.1338 13.0542 46.3501 12.5183 42.9185 11.5135C42.6558 12.0745 42.4863 12.6816 42.4143 13.318Z" fill="#1D1329"/>
  <path d="M31.0714 19.0243L31.0079 18.7899C30.5503 17.1403 30.3809 15.4991 30.5037 13.9166L30.5165 13.7324L30.7029 13.7072C34.4523 13.209 38.3161 13.0709 42.1757 13.3011L42.4002 13.3137V13.5356C42.3748 14.4148 42.3621 14.8544 42.6502 16.0016L42.7095 16.2444L42.4595 16.2821C38.7101 16.8514 34.9564 17.7474 31.3045 18.9448L31.0714 19.0202V19.0243ZM30.9486 14.1385C30.8639 15.5368 31.0121 16.9812 31.3892 18.4382C34.9098 17.2952 38.5237 16.4328 42.1375 15.8718C41.9172 14.9339 41.9088 14.4692 41.9215 13.7491C38.2314 13.5398 34.5413 13.6737 30.9486 14.1385Z" fill="#1D1329"/>
  <path d="M33.2963 23.839L33.1777 23.6506C32.1905 22.0596 31.457 20.4269 31.0079 18.7899L30.9492 18.5805L31.1568 18.5135C34.8342 17.3077 38.6133 16.4076 42.3881 15.834L42.5915 15.8047L42.6466 16.0015C42.8753 16.8304 43.2482 17.6636 43.7523 18.4716L43.8964 18.7019L43.6422 18.8024C40.2486 20.1714 36.8339 21.8293 33.4912 23.7301L33.2963 23.8431V23.839ZM31.5127 18.8777C31.9364 20.3347 32.5888 21.7958 33.4531 23.2193C36.6687 21.3981 39.9478 19.8072 43.2143 18.4758C42.7948 17.7682 42.4729 17.0398 42.2526 16.3155C38.6429 16.8723 35.0333 17.7348 31.5127 18.8777Z" fill="#1D1329"/>
  <path d="M36.9227 28.2643L36.766 28.1094C35.3552 26.7153 34.1479 25.2122 33.1777 23.6506L33.0547 23.4496L33.2623 23.3324C36.6219 21.4191 40.0536 19.7528 43.4683 18.3796L43.6505 18.3042L43.7523 18.4716C44.248 19.2713 44.8707 20.0417 45.5909 20.7576L45.7773 20.9418L45.5655 21.1009C42.7608 23.2068 39.9053 25.5681 37.088 28.1178L36.9227 28.2643ZM33.6987 23.6129C34.5926 25.0155 35.6814 26.3678 36.9397 27.6322C39.6469 25.1913 42.3836 22.9266 45.0781 20.896C44.4553 20.2596 43.9132 19.5811 43.4599 18.8778C40.1977 20.2008 36.9143 21.7959 33.6987 23.6129Z" fill="#1D1329"/>
  <path d="M41.7194 32.0284L41.5288 31.907C39.7875 30.7891 38.1861 29.5122 36.771 28.1138L36.6016 27.9463L36.7795 27.7831C39.6096 25.225 42.4735 22.8553 45.2909 20.741L45.4519 20.6196L45.5959 20.762C46.3246 21.4821 47.1508 22.1394 48.0447 22.7172L48.2523 22.847L48.1083 23.0437C46.0916 25.7735 43.986 28.7376 41.8507 31.8483L41.7237 32.0326L41.7194 32.0284ZM37.2667 27.9547C38.5674 29.2149 40.0163 30.3746 41.5881 31.3962C43.6344 28.4194 45.6468 25.585 47.5829 22.96C46.7949 22.4367 46.0662 21.8547 45.4053 21.2183C42.7108 23.2489 39.9739 25.5139 37.2667 27.9547Z" fill="#1D1329"/>
  <path d="M47.4291 34.8542L47.2088 34.7705C45.2218 34.0127 43.3111 33.0498 41.5275 31.9068L41.3283 31.7812L41.4597 31.5886C43.5992 28.4737 45.709 25.5053 47.7257 22.7714L47.857 22.5956L48.0392 22.7128C48.9585 23.3031 49.9456 23.7972 50.9667 24.1907L51.1743 24.2703L51.1065 24.4796C50.0261 27.6908 48.8187 31.1113 47.5096 34.6407L47.4291 34.8584V34.8542ZM41.9765 31.6472C43.6119 32.6772 45.3489 33.5522 47.1537 34.2555C48.3993 30.8811 49.5559 27.6113 50.5938 24.5299C49.683 24.1698 48.8018 23.726 47.9714 23.2069C46.0352 25.8319 44.0186 28.6663 41.9765 31.643V31.6472Z" fill="#1D1329"/>
  <path d="M53.7069 36.4491L53.4654 36.4114C52.4529 36.2649 51.4191 36.0514 50.3939 35.7834C49.322 35.5029 48.2501 35.1638 47.2079 34.7661L46.9961 34.6865L47.0766 34.4772C48.3815 30.9478 49.5889 27.5356 50.6693 24.3286L50.7455 24.1025L50.9743 24.1905C51.5123 24.3956 52.0631 24.5714 52.6181 24.7138C53.1477 24.852 53.6773 24.9608 54.1984 25.0362L54.3975 25.0655V25.2664C54.3509 28.7581 54.1306 32.4382 53.7366 36.2146L53.7112 36.4533L53.7069 36.4491ZM47.5892 34.4227C48.5467 34.7786 49.5296 35.0884 50.5125 35.3438C51.4403 35.5866 52.3766 35.7792 53.296 35.9216C53.6646 32.3168 53.8769 28.7958 53.9235 25.4548C53.449 25.3795 52.9706 25.2793 52.4919 25.1537C52.0004 25.0281 51.5081 24.8729 51.0294 24.6971C49.9914 27.7785 48.8348 31.0483 47.5892 34.4227Z" fill="#1D1329"/>
  <path d="M57.2201 36.692C55.9914 36.692 54.7364 36.5998 53.4654 36.4114L53.2461 36.378L53.2673 36.1603C53.6613 32.4007 53.8811 28.7288 53.9235 25.2539L53.924 24.9902L54.1909 25.0279C55.2331 25.1786 56.2499 25.2121 57.2201 25.12L57.4149 25.1033L57.4658 25.2917C58.4021 28.8169 59.1181 32.5347 59.5841 36.3362L59.6138 36.5706L59.3765 36.5916C58.669 36.6586 57.9488 36.692 57.2158 36.692H57.2201ZM53.7545 35.9887C55.5847 36.2441 57.381 36.2985 59.1011 36.1562C58.6436 32.5263 57.9615 28.976 57.0718 25.5973C56.2033 25.6643 55.3051 25.6392 54.39 25.5219C54.3391 28.8671 54.1273 32.3881 53.7587 35.9929L53.7545 35.9887Z" fill="#1D1329"/>
  <path d="M59.1558 36.617L59.1304 36.3951C58.6644 32.6145 57.9569 28.9219 57.0248 25.4134L56.957 25.1538L57.2282 25.1287C58.1729 25.0408 59.0626 24.8357 59.8676 24.5217L60.0582 24.4463L60.1557 24.6263C61.952 27.9547 63.4814 31.4841 64.7058 35.1182L64.7736 35.3233L64.5703 35.4029C62.9815 36.0183 61.236 36.4202 59.3846 36.5961L59.1601 36.617H59.1558ZM57.5374 25.5511C58.4228 28.934 59.105 32.4847 59.5626 36.1146C61.2106 35.943 62.7655 35.5829 64.1932 35.0512C63.0112 31.5804 61.5455 28.21 59.8382 25.0197C59.1222 25.2793 58.3509 25.4595 57.5374 25.5558L57.5374 25.5511Z" fill="#1D1329"/>
  <path d="M64.3407 35.4904L64.2644 35.2601C63.0485 31.6512 61.5276 28.1469 59.744 24.8394L59.6211 24.6134L59.8626 24.5171C60.6591 24.2073 61.3666 23.7928 61.964 23.2904L62.1419 23.1396L62.2902 23.3155C64.7771 26.242 66.9632 29.3904 68.7976 32.6686L68.8866 32.8318L68.7426 32.9533C67.5563 33.9581 66.1497 34.7787 64.5652 35.3941L64.3365 35.482L64.3407 35.4904ZM60.2693 24.8478C61.9767 28.0423 63.4383 31.4126 64.6246 34.8833C66.0057 34.3223 67.2386 33.6022 68.2977 32.7314C66.5353 29.5997 64.4466 26.5937 62.0826 23.7886C61.5488 24.2114 60.9429 24.5673 60.2693 24.8478Z" fill="#1D1329"/>
  <path d="M68.526 33.142L68.3862 32.8949C66.5686 29.6419 64.3995 26.5186 61.9295 23.613L61.7812 23.4414L61.955 23.2948C62.5566 22.7841 63.0395 22.1896 63.3869 21.5239L63.5183 21.2769L63.7386 21.4527C66.7 23.7972 69.3394 26.3888 71.5891 29.152L71.6823 29.2693L71.6145 29.4032C70.9154 30.7472 69.9495 31.9446 68.7378 32.9661L68.5217 33.1503L68.526 33.142ZM62.4337 23.4916C64.7977 26.2967 66.8864 29.3028 68.6531 32.426C69.6783 31.5175 70.5087 30.475 71.1315 29.3195C68.9793 26.6903 66.4712 24.2201 63.6665 21.976C63.3403 22.5329 62.9294 23.0395 62.4337 23.4916Z" fill="#1D1329"/>
  <path d="M71.456 29.7088L71.2314 29.4325C69.003 26.6944 66.389 24.1238 63.453 21.8002L63.3047 21.6829L63.3937 21.5155C63.7538 20.8288 63.9656 20.0669 64.0292 19.2588L64.0546 18.9155L64.3638 19.0704C67.5371 20.6698 70.3799 22.5496 72.8159 24.6639L72.9049 24.7392L72.8964 24.8523C72.7736 26.4767 72.3414 28.0048 71.6212 29.3906L71.456 29.7046V29.7088ZM63.8893 21.5615C66.6898 23.7972 69.2063 26.2548 71.367 28.8673C71.9517 27.6532 72.3033 26.3344 72.4262 24.936C70.1172 22.9473 67.4354 21.1638 64.4571 19.6356C64.3723 20.3139 64.1817 20.9628 63.8936 21.5615H63.8893Z" fill="#1D1329"/>
  <path d="M72.8628 25.3171L72.5154 25.0156C70.109 22.9307 67.2958 21.0676 64.1565 19.485L64.0209 19.4138L64.0336 19.2631C64.0972 18.4509 64.004 17.6052 63.7625 16.7511L63.6523 16.3701L64.0421 16.4664C67.1306 17.241 69.8971 18.3379 72.2569 19.7278L72.3374 19.7739L72.3629 19.8618C72.8458 21.5532 73.028 23.2363 72.9009 24.8565L72.867 25.3129L72.8628 25.3171ZM64.4997 19.1459C67.4653 20.6531 70.1386 22.4073 72.4603 24.3625C72.5154 22.9683 72.3374 21.5281 71.935 20.0753C69.7277 18.79 67.1603 17.7559 64.3005 17.0065C64.47 17.7266 64.5378 18.4425 64.4997 19.1417V19.1459Z" fill="#1D1329"/>
  <path d="M72.5139 20.4183L72.0139 20.1252C69.688 18.7603 66.9681 17.6802 63.922 16.914L63.7906 16.8805L63.7567 16.7549C63.5195 15.9259 63.1424 15.097 62.634 14.2889L62.418 13.9414H62.8289C65.5658 13.8996 67.9807 14.2387 70.027 14.9169L70.1075 14.9421L70.1498 15.0132C71.1497 16.6 71.8911 18.2328 72.3571 19.8656L72.5139 20.4183ZM64.1635 16.4995C66.9808 17.2196 69.527 18.2035 71.7428 19.4386C71.2937 18.057 70.6413 16.6754 69.7982 15.3231C67.9214 14.7076 65.7141 14.3978 63.2356 14.3894C63.6381 15.0844 63.9516 15.792 64.1635 16.4995Z" fill="#1D1329"/>
  <path d="M70.4887 15.5537L69.8743 15.3485C67.8789 14.6828 65.5106 14.3605 62.8288 14.3898H62.6975L62.6297 14.2809C62.1255 13.4813 61.5028 12.7151 60.7741 12.0034L60.5156 11.748L60.8588 11.6224C62.9898 10.8478 64.8327 10.4585 66.3664 10.4961H66.4596L66.5274 10.5631C67.9467 11.9531 69.1668 13.4478 70.1497 15.0094L70.4929 15.5495L70.4887 15.5537ZM63.1678 13.9334C65.4937 13.9334 67.5866 14.2014 69.4083 14.7247C68.5271 13.4101 67.4722 12.1457 66.2647 10.9567C66.2478 10.9567 66.2308 10.9567 66.2139 10.9567C64.8539 10.9567 63.2228 11.2874 61.3587 11.9364C61.973 12.5686 62.5068 13.2384 62.9559 13.9334C63.028 13.9334 63.0957 13.9334 63.1678 13.9334Z" fill="#1D1329"/>
  <path d="M60.8816 12.1082L60.7765 12.0034C60.0436 11.2833 59.2132 10.6302 58.315 10.0608L58.082 9.91425L58.2727 9.71329C59.5987 8.30656 60.6833 7.32687 61.4968 6.79516L61.6239 6.71143L61.751 6.79097C63.4964 7.90045 65.1064 9.16902 66.5299 10.5632L66.9408 10.9651L66.3646 10.9567C64.9072 10.9316 63.1024 11.3 61.0223 12.0578L60.8816 12.1082ZM58.798 9.82633C59.5903 10.3497 60.3317 10.9358 60.9968 11.5764C62.8143 10.9274 64.4243 10.5674 65.8012 10.5046C64.5387 9.31555 63.1363 8.22701 61.6281 7.25988C60.8994 7.76229 59.9504 8.62474 58.8023 9.82633H58.798Z" fill="#1D1329"/>
  <path d="M58.4748 10.1655L58.3138 10.0609C57.3902 9.47472 56.4031 8.98069 55.3736 8.59551L55.1914 8.52853L55.2295 8.34013C55.5939 6.49379 55.7634 5.09544 55.7337 4.17436L55.721 3.83105L56.0472 3.95247C58.0384 4.70189 59.9576 5.65645 61.7497 6.79105L62.0505 6.97945L61.7539 7.17204C60.9702 7.68281 59.9153 8.64157 58.6146 10.0232L58.4833 10.1613L58.4748 10.1655ZM55.721 8.23965C56.653 8.60389 57.5512 9.05186 58.4028 9.5752C59.517 8.40293 60.4575 7.53628 61.2074 6.9962C59.6229 6.01651 57.941 5.17917 56.1997 4.50511C56.187 5.41363 56.026 6.66545 55.7252 8.24383L55.721 8.23965Z" fill="#1D1329"/>
  <path d="M55.6309 8.6958L55.3717 8.5994C54.859 8.40681 54.3342 8.23966 53.8046 8.1015C53.2539 7.95915 52.6983 7.84579 52.1476 7.77043L52.0035 7.7495L51.9617 7.61166C51.3008 5.50993 50.4953 3.86425 49.5675 2.71291L49.2031 2.26074L49.7793 2.34448C50.8385 2.4952 51.923 2.71291 52.9949 2.99341C54.0159 3.25718 55.0412 3.58374 56.041 3.95635L56.1851 4.01078V4.1615C56.2232 5.11607 56.0495 6.55211 55.6809 8.43193L55.6301 8.69988L55.6309 8.6958ZM52.3594 7.33502C52.8763 7.41457 53.4022 7.52374 53.9233 7.65771C54.3808 7.77494 54.8336 7.91697 55.2785 8.07606C55.5877 6.46 55.7403 5.1998 55.7318 4.32897C54.7955 3.98147 53.8338 3.68003 52.8805 3.43302C52.012 3.20694 51.135 3.02272 50.275 2.88037C51.0715 4.01078 51.7748 5.50543 52.3594 7.33502Z" fill="#1D1329"/>
  <path d="M52.5126 7.82076L52.1476 7.77043C51.1096 7.6239 50.0892 7.59887 49.1233 7.69516L48.992 7.70772L48.9115 7.60305C47.2804 5.47203 45.5518 3.79316 43.7682 2.61251L43.2344 2.25664L43.8741 2.19384C45.7636 2.00544 47.7506 2.05568 49.78 2.34038L49.8732 2.35294L49.9325 2.42411C50.8942 3.61732 51.7246 5.31712 52.4024 7.47327L52.5126 7.82076ZM50.2968 7.17601C50.8052 7.17601 51.3263 7.20532 51.8517 7.26812C51.2247 5.37155 50.479 3.86434 49.6274 2.78417C47.8947 2.54553 46.1958 2.48273 44.5604 2.59995C46.1704 3.75967 47.7294 5.31293 49.208 7.22625C49.5639 7.19276 49.9282 7.1802 50.2968 7.1802V7.17601Z" fill="#1D1329"/>
  <path d="M46.3694 8.3649L46.2627 8.2814C43.7801 6.34296 41.2389 4.85226 38.7096 3.84327L38.1758 3.62975L38.7096 3.41623C40.2899 2.78822 42.0269 2.37793 43.8741 2.18953L43.9588 2.18115L44.0266 2.22721C45.8483 3.43297 47.6192 5.14952 49.28 7.32241L49.53 7.64898L49.119 7.69084C48.1785 7.78714 47.293 7.99647 46.4923 8.31466L46.3694 8.3649ZM39.4256 3.64231C41.7812 4.64293 44.141 6.05385 46.4499 7.84156C47.1405 7.58199 47.8819 7.39359 48.6699 7.28473C47.132 5.32955 45.5094 3.77628 43.8444 2.65844C42.2768 2.82172 40.794 3.15247 39.4256 3.64231Z" fill="#1D1329"/>
  <path d="M44.2938 9.65448L44.154 9.58749C40.9935 8.05098 37.799 6.9415 34.6682 6.28419L34.2148 6.1879L34.5665 5.88646C35.7443 4.87328 37.1381 4.04431 38.7141 3.41631L38.7989 3.38281L38.8836 3.41631C41.4552 4.44205 44.0354 5.95344 46.5519 7.917L46.8654 8.15983L46.4926 8.30637C45.7003 8.62037 44.9971 9.03904 44.4082 9.54563L44.2938 9.64611V9.65448ZM35.2274 5.9367C38.2057 6.59819 41.2265 7.6658 44.226 9.11021C44.7344 8.69154 45.3191 8.33149 45.9588 8.0426C43.6032 6.24233 41.1968 4.84397 38.7989 3.87684C37.4643 4.41693 36.2654 5.10773 35.2274 5.9367Z" fill="#1D1329"/>
  <path d="M42.9125 11.5051L42.7303 11.459C39.1038 10.5044 35.4645 9.95179 31.9227 9.80944L31.5626 9.79688L31.7235 9.47869C32.4099 8.13058 33.3674 6.92062 34.5621 5.8907L34.6511 5.81534L34.7654 5.84046C37.9344 6.50195 41.167 7.62817 44.3614 9.18144L44.6749 9.33216L44.4123 9.55824C43.8149 10.0732 43.3404 10.6719 43.0015 11.3418L42.9167 11.5092L42.9125 11.5051ZM32.3082 9.36984C35.7145 9.53312 39.197 10.069 42.671 10.9733C42.9803 10.4123 43.3743 9.90155 43.853 9.4452C40.8281 8.00498 37.7819 6.94993 34.7824 6.31355C33.7656 7.20532 32.931 8.23524 32.3082 9.36984Z" fill="#1D1329"/>
  <path d="M30.4769 14.201L30.4981 13.9205C30.6209 12.3337 31.0319 10.8391 31.7225 9.48261L31.7902 9.34863H31.9385C35.5185 9.49935 39.1874 10.0562 42.8479 11.0191L43.1232 11.0903L42.9961 11.3415C42.653 12.0156 42.4496 12.7608 42.3861 13.5521L42.3691 13.7782L42.1403 13.7656C38.3104 13.5353 34.4805 13.6735 30.7565 14.1675L30.4727 14.2052L30.4769 14.201ZM32.0699 9.81754C31.4852 11.0066 31.1209 12.3003 30.9853 13.6693C34.5737 13.2088 38.2596 13.0832 41.9455 13.2883C42.0175 12.6184 42.1912 11.9821 42.4581 11.3876C38.9713 10.4916 35.4804 9.95989 32.0699 9.81336V9.81754Z" fill="#1D1329"/>
  <path d="M20.7758 23.4202L20.708 23.1272C20.1106 20.5314 19.8649 19.4554 20.0089 16.4033L20.0174 16.2484L20.1657 16.1982C23.4618 15.0385 27.0085 14.2013 30.7029 13.7072L30.9853 13.6693L30.9648 13.9499C30.8462 15.4823 31.0115 17.069 31.4563 18.6683L31.5156 18.8777L31.308 18.9447C27.7111 20.1253 24.2583 21.5823 21.0469 23.2737L20.78 23.4161L20.7758 23.4202ZM20.4665 16.5792C20.3436 19.3382 20.5682 20.4309 21.0935 22.7336C24.1905 21.1217 27.5035 19.7234 30.9521 18.5804C30.5624 17.0983 30.4056 15.6246 30.4819 14.197C26.9739 14.6826 23.6058 15.4823 20.4665 16.575V16.5792Z" fill="#1D1329"/>
  <path d="M23.8468 30.0815L23.7112 29.8638C22.3428 27.6616 21.3302 25.3966 20.7032 23.1357L20.6523 22.9599L20.8176 22.872C24.0544 21.1638 27.5284 19.6985 31.1507 18.5094L31.3837 18.4341L31.4473 18.6685C31.8879 20.2595 32.5996 21.8546 33.5656 23.4079L33.6885 23.6088L33.4809 23.7261C30.1932 25.5975 27.0158 27.6825 24.0459 29.9224L23.8425 30.0773L23.8468 30.0815ZM21.2073 23.1902C21.8047 25.2793 22.7368 27.3685 23.9781 29.4074C26.8463 27.2596 29.8967 25.2584 33.053 23.4497C32.1717 22.0011 31.5066 20.5149 31.0702 19.0244C27.6174 20.1716 24.3001 21.5699 21.2031 23.1944L21.2073 23.1902Z" fill="#1D1329"/>
  <path d="M28.8589 36.2106L28.6894 36.0431C26.7363 34.1088 25.0629 32.028 23.7156 29.8635L23.6055 29.6877L23.7707 29.5621C26.7575 27.3096 29.9519 25.2163 33.2565 23.3323L33.4514 23.2192L33.57 23.4076C34.5233 24.94 35.7053 26.4137 37.0907 27.7827L37.2601 27.9502L37.0822 28.1135C34.303 30.6255 31.5915 33.2882 29.0199 36.0305L28.8547 36.2064L28.8589 36.2106ZM24.2198 29.8007C25.4865 31.8103 27.0414 33.7404 28.8462 35.5491C31.3246 32.9156 33.9259 30.3576 36.595 27.9376C35.3155 26.6481 34.2055 25.2707 33.2946 23.8389C30.1341 25.6475 27.0837 27.6529 24.2198 29.8007Z" fill="#1D1329"/>
  <path d="M35.4832 41.4275L35.2883 41.3019C32.8735 39.7528 30.6535 37.986 28.6919 36.0434L28.5352 35.8885L28.6877 35.7252C31.2678 32.9745 33.9919 30.2992 36.7796 27.7789L36.9449 27.6323L37.1016 27.7872C38.4955 29.1647 40.0715 30.4207 41.7831 31.5218L41.9822 31.6474L41.8509 31.84C39.7538 34.8962 37.6566 38.0572 35.6146 41.2307L35.4875 41.4275H35.4832ZM29.1791 35.8759C31.0263 37.6804 33.098 39.3341 35.3434 40.7953C37.305 37.7474 39.3174 34.7162 41.3298 31.7813C39.7283 30.7389 38.2498 29.5582 36.9279 28.2687C34.2631 30.6886 31.6576 33.2467 29.1791 35.8801V35.8759Z" fill="#1D1329"/>
  <path d="M43.3806 45.3546L43.1645 45.2709C40.4107 44.2201 37.7586 42.8845 35.2844 41.3019L35.0938 41.1805L35.2166 40.9879C37.2587 37.8102 39.36 34.6451 41.4614 31.5846L41.5885 31.4004L41.7792 31.5218C43.5374 32.648 45.4184 33.5984 47.3757 34.3436L47.5876 34.4232L47.5071 34.6367C46.2191 38.12 44.8549 41.6536 43.4611 45.1453L43.3764 45.3546H43.3806ZM35.7335 41.0424C38.0594 42.5161 40.5421 43.7679 43.1179 44.7643C44.4567 41.4192 45.7616 38.0321 46.9987 34.6911C45.16 33.9752 43.3844 33.0792 41.7194 32.0284C39.707 34.9674 37.695 37.9944 35.7335 41.0424Z" fill="#1D1329"/>
  <path d="M52.058 47.5857L51.8377 47.5522C50.4269 47.3429 48.9949 47.054 47.5799 46.6856C46.0928 46.3004 44.61 45.8231 43.1653 45.2747L42.9492 45.1909L43.034 44.9774C44.4278 41.4899 45.7878 37.9605 47.0757 34.4814L47.1562 34.2637L47.3765 34.3474C48.4018 34.7368 49.4609 35.0759 50.5158 35.348C51.5242 35.6118 52.5452 35.8169 53.5366 35.9635L53.7569 35.997L53.7366 36.2146C53.351 39.9282 52.7994 43.6837 52.1046 47.3722L52.0622 47.5899L52.058 47.5857ZM43.5466 44.9272C44.9065 45.438 46.3004 45.8776 47.6942 46.2418C49.0203 46.5851 50.3591 46.8656 51.6809 47.0666C52.3418 43.5288 52.8672 39.9366 53.2442 36.3821C52.3037 36.2356 51.342 36.0346 50.393 35.7876C49.3974 35.5281 48.4018 35.2141 47.4273 34.854C46.1902 38.195 44.8854 41.582 43.5466 44.9272Z" fill="#1D1329"/>
  <path d="M57.0375 47.9377C55.3386 47.9377 53.5973 47.8079 51.8349 47.5483L51.5977 47.5148L51.64 47.2804C52.3348 43.6003 52.8817 39.8614 53.2673 36.1603L53.2923 35.9219L53.5338 35.9596C55.525 36.2526 57.4781 36.3112 59.3337 36.1354L59.5583 36.1145L59.5841 36.3362C60.0459 40.0791 60.2658 43.8598 60.2361 47.5734V47.7786L60.0243 47.7995C59.0456 47.8916 58.0458 47.9377 57.0333 47.9377H57.0375ZM52.1442 47.1338C54.7624 47.5023 57.3298 47.5818 59.7786 47.3641C59.7955 43.8096 59.5879 40.1965 59.1558 36.6127C57.4061 36.7592 55.5716 36.7048 53.7075 36.4452C53.3304 40.0039 52.8051 43.5961 52.1442 47.1297V47.1338Z" fill="#1D1329"/>
  <path d="M59.7755 47.8249V47.5695C59.8052 43.8768 59.5891 40.1172 59.1273 36.391L59.0977 36.1565L59.3349 36.1356C61.1482 35.964 62.8471 35.5746 64.3977 34.9717L64.6265 34.8838L64.7027 35.1141C65.9102 38.6895 66.7999 42.3194 67.3549 45.9032L67.3845 46.0832L67.2108 46.1502C65.012 47.0043 62.5971 47.5611 60.0297 47.7997L59.7755 47.8249ZM59.6188 36.571C60.0509 40.1548 60.2585 43.768 60.2415 47.3225C62.6056 47.0796 64.8298 46.5647 66.8676 45.7901C66.3253 42.3696 65.478 38.903 64.3384 35.4867C62.881 36.0309 61.2915 36.3948 59.6138 36.5706L59.6188 36.571Z" fill="#1D1329"/>
  <path d="M66.9446 46.2544L66.9022 45.9697C66.3514 42.4111 65.466 38.8105 64.267 35.256L64.1992 35.0508L64.4026 34.9713C65.9362 34.3768 67.3004 33.5813 68.4443 32.61L68.6604 32.4258L68.8002 32.6728C70.605 35.9049 72.037 39.2208 73.0622 42.5325L73.1046 42.6748L72.9902 42.7711C71.3507 44.1611 69.406 45.2957 67.2157 46.1456L66.9446 46.2503V46.2544ZM64.7712 35.3188C65.9108 38.7351 66.7624 42.1933 67.3131 45.6181C69.2959 44.8184 71.0626 43.7801 72.5708 42.5241C71.5837 39.3757 70.2237 36.2189 68.5248 33.1417C67.436 34.0209 66.1777 34.7536 64.7712 35.323V35.3188Z" fill="#1D1329"/>
  <path d="M72.7193 43.0017L72.6176 42.6667C71.605 39.3886 70.1815 36.0978 68.3937 32.895L68.3047 32.7317L68.4487 32.6103C69.6096 31.6264 70.5416 30.4751 71.211 29.1856L71.3762 28.8716L71.6008 29.1479C73.8165 31.8734 75.6256 34.7371 76.9728 37.6511L77.0194 37.7516L76.9686 37.852C76.0026 39.7068 74.6681 41.3605 72.9989 42.7756L72.7277 43.0017H72.7193ZM68.8893 32.8364C70.5925 35.9052 71.9567 39.0536 72.9565 42.1936C74.4266 40.8958 75.6171 39.4011 76.4983 37.739C75.2189 34.9883 73.52 32.2879 71.4525 29.7047C70.8001 30.8686 69.9358 31.9195 68.8893 32.8364Z" fill="#1D1329"/>
  <path d="M76.7418 38.2705L76.5427 37.8393C75.2124 34.9588 73.4245 32.1286 71.2299 29.4324L71.1367 29.3152L71.2045 29.1812C71.8993 27.8498 72.3103 26.3845 72.4289 24.8187L72.4628 24.3623L72.8102 24.6637C75.2124 26.7445 77.1866 29.0221 78.6822 31.4378L78.7203 31.5006V31.576C78.5423 33.82 77.9492 35.9301 76.9494 37.8477L76.7291 38.2663L76.7418 38.2705ZM71.6875 29.2649C73.7507 31.823 75.4581 34.4941 76.7587 37.2197C77.5891 35.4947 78.0933 33.6149 78.2543 31.622C76.8604 29.3863 75.0429 27.2637 72.8526 25.3127C72.6958 26.7152 72.3018 28.0424 71.6875 29.2649Z" fill="#1D1329"/>
  <path d="M78.6684 32.2877L78.2956 31.6807C76.8255 29.3068 74.8809 27.0627 72.5126 25.0112L72.4236 24.9359L72.4321 24.8228C72.555 23.257 72.377 21.6284 71.9068 19.9872L71.75 19.4346L72.2499 19.7276C74.5843 21.1009 76.495 22.7379 77.9355 24.5968L77.9736 24.6721C78.643 27.0125 78.893 29.3361 78.7193 31.5802L78.6642 32.2877H78.6684ZM72.9024 24.7433C75.063 26.6273 76.8763 28.6746 78.2998 30.8349C78.3676 28.8798 78.1134 26.8701 77.5415 24.8396C76.2408 23.1733 74.5504 21.687 72.5041 20.4143C72.8642 21.8796 72.9998 23.3324 72.9066 24.7391L72.9024 24.7433Z" fill="#1D1329"/>
  <path d="M78.3071 25.8278L77.5699 24.8774C76.1676 23.0646 74.2992 21.4653 72.0157 20.1255L71.9352 20.0795L71.9098 19.9915C71.4564 18.4006 70.732 16.8055 69.7533 15.2564L69.4102 14.7163L70.0245 14.9215C72.0538 15.5955 73.6934 16.6087 74.8966 17.9317L74.922 17.9652C76.3074 20.1632 77.3369 22.424 77.9809 24.6848L78.3113 25.8362L78.3071 25.8278ZM72.3292 19.778C74.2399 20.9126 75.871 22.2272 77.1801 23.6926C76.5489 21.8504 75.6634 20.0125 74.5322 18.2164C73.507 17.0944 72.147 16.2068 70.482 15.5662C71.2955 16.9478 71.914 18.3629 72.325 19.7738L72.3292 19.778Z" fill="#1D1329"/>
  <path d="M74.5465 18.229C73.3984 16.9688 71.8274 15.9975 69.8743 15.3485L69.793 15.3234L69.7506 15.2523C68.7889 13.7241 67.59 12.2546 66.1961 10.8897L65.7852 10.4878L66.3613 10.4962C67.8653 10.5213 69.0389 10.9441 69.8481 11.7438L70.4539 12.3509C72.1867 14.1177 73.6865 16.0017 74.9151 17.9527L74.5465 18.2248V18.229ZM70.1023 14.9424C71.3987 15.382 72.5299 15.9556 73.4916 16.6674C72.5002 15.2899 71.3733 13.9502 70.1277 12.6774L69.5261 12.0746C68.9118 11.4675 68.0475 11.1032 66.9545 10.9944C68.1746 12.242 69.2295 13.5692 70.1065 14.9466L70.1023 14.9424Z" fill="#1D1329"/>
  <path d="M69.5249 12.0703C69.5249 12.0703 69.4952 12.0409 69.4783 12.0242C68.758 11.3376 67.7073 10.9775 66.3559 10.9566H66.2627L66.1949 10.8896C64.7925 9.51637 63.2123 8.26873 61.4922 7.176L61.1914 6.9876L61.488 6.79501C62.2294 6.30936 62.7674 6.18376 63.1318 6.41821L64.2291 7.13832C66.6948 8.91767 66.7414 8.95535 67.9404 9.98946L68.4615 10.4584C68.9063 10.8603 69.4062 11.3125 69.8002 11.6934C69.8172 11.7102 69.8341 11.7269 69.8511 11.7437L69.5249 12.0703ZM66.4618 10.5002C67.0549 10.517 67.5972 10.5965 68.0844 10.7389L67.6353 10.3328C66.4533 9.31541 66.4067 9.28191 63.9706 7.51513L62.8818 6.7992C62.8098 6.75315 62.598 6.69035 62.0557 6.9876C63.6571 8.03009 65.1357 9.21074 66.4618 10.4961V10.5002Z" fill="#1D1329"/>
  <path d="M61.6205 7.25966L61.4934 7.18011C59.7309 6.06227 57.8414 5.12026 55.8798 4.3834L55.7358 4.32898V4.17825C55.7019 3.27811 55.4858 3.11483 55.4181 3.08553C55.4138 3.08553 55.5748 2.6543 55.5748 2.6543C55.5875 2.65848 56.0663 2.8427 56.0663 2.8427C57.9784 3.65213 59.3892 4.29688 60.2987 4.77695C61.1545 5.25842 62.2814 5.8948 63.1075 6.40558C63.116 6.40976 63.1245 6.41814 63.133 6.42232L62.883 6.8075C62.7771 6.7447 62.489 6.69446 61.7476 7.18011L61.6205 7.26385V7.25966ZM56.1849 4.0066C58.0787 4.72671 59.9046 5.63941 61.6205 6.71121C61.8408 6.57304 62.0441 6.47256 62.2263 6.40558C61.523 5.99109 60.7266 5.53893 60.0995 5.18725C58.765 4.4797 58.7311 4.46295 56.0917 3.34929C56.1425 3.5335 56.1722 3.75121 56.1891 4.0066H56.1849Z" fill="#1D1329"/>
  <path d="M56.2033 4.50502L55.8771 4.38361C54.8942 4.01518 53.8859 3.69699 52.8775 3.43323C51.8226 3.15691 50.7592 2.94339 49.7128 2.79685L49.6238 2.78429L49.5645 2.71312C48.7553 1.70831 47.8699 1.10124 46.9208 0.90028C46.8403 0.88772 46.7641 0.870973 46.6836 0.858413L46.7556 0.40625C46.8403 0.41881 46.9251 0.43137 47.0098 0.452304C48.4376 0.703505 50.1746 1.05519 51.4159 1.33988C52.509 1.65807 54.2417 2.18978 55.5636 2.65032C55.9533 2.79267 56.1567 3.2867 56.1864 4.15753L56.1991 4.50084L56.2033 4.50502ZM49.8732 2.35294C50.9069 2.50366 51.9582 2.71731 53.0004 2.98525C53.907 3.21971 54.8137 3.5044 55.7076 3.82678C55.6398 3.21552 55.4704 3.10248 55.4111 3.08155C54.1019 2.6252 52.3776 2.09768 51.3015 1.78367C50.5643 1.61202 49.6408 1.41943 48.7129 1.23522C49.1154 1.53247 49.501 1.90509 49.8695 2.35306L49.8732 2.35294Z" fill="#1D1329"/>
  <path d="M50.297 2.87613L49.7209 2.7924C47.7296 2.51189 45.7808 2.46165 43.9294 2.65005L43.8444 2.65844L43.7769 2.61237C42.0356 1.45684 40.2647 0.799531 38.5234 0.648809V0.19246C40.9256 -0.0503685 43.4506 -0.00850162 46.0223 0.305501L46.7679 0.405981C47.9245 0.569262 48.9879 1.24751 49.9369 2.42397L50.3013 2.87613H50.297ZM46.1748 2.08066C47.1619 2.08066 48.1618 2.13927 49.1786 2.26069C48.4117 1.45265 47.5771 0.979558 46.6959 0.858144L45.9587 0.76185C44.0607 0.527395 42.1924 0.447848 40.3791 0.523209C41.578 0.853958 42.777 1.41079 43.9633 2.18533C44.6877 2.11415 45.4249 2.08066 46.1748 2.08066Z" fill="#1D1329"/>
  <path d="M38.7979 3.88086L38.7131 3.84737C36.2262 2.85931 33.7817 2.34853 31.4473 2.33178L30.2695 2.32341L31.3626 1.88799C33.5487 1.02135 35.9551 0.447771 38.514 0.192383H38.5564C40.3781 0.347291 42.2211 1.03391 44.0301 2.2313L44.5639 2.58717L43.9242 2.64997C42.1194 2.83 40.4205 3.23192 38.8826 3.84318L38.7979 3.87667V3.88086ZM32.6082 1.9173C34.6163 2.06384 36.6965 2.55368 38.7979 3.38264C40.1663 2.84675 41.6534 2.47413 43.2294 2.26898C41.6703 1.33116 40.0943 0.786894 38.5394 0.652919C36.4423 0.866441 34.4553 1.2893 32.6082 1.9173Z" fill="#1D1329"/>
  <path d="M34.7839 6.30948L34.6695 6.28436C31.5895 5.63961 28.6027 5.44702 25.798 5.7066L25.082 5.77358L25.6243 5.30467C27.2512 3.90213 29.1831 2.75498 31.3607 1.88833L31.4031 1.87158H31.4497C33.8434 1.88833 36.343 2.40748 38.885 3.41647L39.4188 3.62999L38.885 3.84352C37.3556 4.45059 36.0041 5.25443 34.8687 6.23412L34.7797 6.30948H34.7839ZM28.2468 5.13721C30.3143 5.13721 32.4622 5.36329 34.6526 5.81545C35.6736 4.9488 36.8599 4.22032 38.1817 3.64255C35.8939 2.79265 33.6443 2.35305 31.4921 2.33212C29.6195 3.08154 27.9375 4.04029 26.4844 5.19163C27.0648 5.15395 27.6494 5.13721 28.2468 5.13721Z" fill="#1D1329"/>
  <path d="M21.4847 10.6884L21.7008 10.2614C22.6498 8.3983 23.9678 6.73234 25.6243 5.30467L25.679 5.25409L25.7552 5.24572C28.6065 4.98196 31.6357 5.17873 34.7623 5.83186L35.2156 5.92815L34.864 6.22959C33.7116 7.22184 32.7923 8.38156 32.1356 9.67943L32.0678 9.81341H31.9195C28.4328 9.66687 25.0774 9.93063 21.955 10.5879L21.4805 10.6884H21.4847ZM25.8739 5.69788C24.4165 6.96227 23.2302 8.42342 22.3405 10.0437C25.3189 9.46172 28.4963 9.22727 31.7924 9.3445C32.4067 8.18059 33.2202 7.12136 34.22 6.1961C31.3264 5.6309 28.5217 5.46343 25.8739 5.69788Z" fill="#1D1329"/>
  <path d="M19.9842 16.7468L20.0096 16.3951C20.1791 14.2013 20.7468 12.1372 21.7043 10.2616L21.7551 10.1653L21.8653 10.1444C25.0258 9.47868 28.4193 9.21073 31.9442 9.35308L32.3043 9.36564L32.1433 9.68383C31.4782 10.9901 31.0835 12.426 30.9648 13.9499L30.9528 14.1343L30.7664 14.1594C27.1017 14.6492 23.5896 15.4782 20.3231 16.6254L19.9884 16.7426L19.9842 16.7468ZM22.0686 10.5672C21.2213 12.2628 20.6959 14.1175 20.5053 16.0811C23.6489 15.0009 27.0128 14.2096 30.5165 13.7324C30.6436 12.3382 30.9994 11.0152 31.5714 9.79687C28.2541 9.6922 25.0554 9.94759 22.0686 10.5672Z" fill="#1D1329"/>
  <path d="M12.0349 29.1982L11.9417 28.8591C11.1833 26.1168 10.8995 23.3954 11.1028 20.7662L11.1113 20.6531L11.2045 20.5903C13.8355 18.8445 16.8526 17.3663 20.1657 16.1982L20.4827 16.0854L20.4743 16.4204C20.4107 19.0999 20.4234 20.0879 21.1606 23.0228L21.2031 23.1944L21.042 23.2782C17.8179 24.978 14.8777 26.8955 12.3103 28.9721L12.0349 29.194V29.1982ZM11.5519 20.9085C11.3782 23.341 11.6282 25.8572 12.2933 28.3943C14.776 26.4182 17.5891 24.5928 20.6607 22.9558C19.9828 20.2177 19.9405 19.1669 19.9955 16.7386C16.8816 17.8606 14.0431 19.259 11.5477 20.9043L11.5519 20.9085Z" fill="#1D1329"/>
  <path d="M15.7107 37.1861L15.554 36.9349C13.9102 34.2889 12.6943 31.5717 11.9444 28.8546L11.9062 28.7122L12.0249 28.6159C14.6177 26.5184 17.5791 24.5883 20.8286 22.8718L21.0828 22.7378L21.1591 23.0141C21.7734 25.2331 22.769 27.4562 24.112 29.6249L24.2221 29.8007L24.0569 29.9263C21.0701 32.1746 18.3332 34.5485 15.9183 36.9767L15.7107 37.1861ZM12.4316 28.8797C13.1518 31.421 14.283 33.9665 15.7955 36.4492C18.1299 34.1214 20.7566 31.848 23.6078 29.6877C22.3495 27.632 21.4005 25.5219 20.7905 23.4118C17.7147 25.053 14.9015 26.891 12.4316 28.8755V28.8797Z" fill="#1D1329"/>
  <path d="M21.7184 44.5463L21.532 44.3621C19.1849 42.0385 17.1725 39.539 15.5541 36.9391L15.4609 36.7884L15.588 36.6586C18.0199 34.2136 20.7737 31.823 23.7774 29.5621L23.9808 29.4072L24.1164 29.6249C25.4424 31.7602 27.0947 33.8074 29.0224 35.7166L29.1791 35.8715L29.0266 36.0348C26.4423 38.7896 24.0401 41.5863 21.8794 44.3412L21.7184 44.5463ZM16.0456 36.8512C17.5835 39.3004 19.4773 41.6533 21.6761 43.8555C23.7563 41.2095 26.0652 38.5303 28.5352 35.8885C26.7134 34.0631 25.1374 32.1118 23.8537 30.0813C20.9982 32.2458 18.3757 34.5192 16.0456 36.8512Z" fill="#1D1329"/>
  <path d="M29.6612 50.814L29.4578 50.6842C26.5557 48.8253 23.8909 46.6985 21.5269 44.3623L21.3828 44.22L21.5057 44.0609C23.6706 41.2935 26.0855 38.4884 28.6783 35.7252L28.8435 35.5493L29.013 35.7168C30.9534 37.6343 33.1437 39.3843 35.5332 40.9167L35.728 41.0381L35.6052 41.2307C33.5589 44.4167 31.5973 47.5735 29.7841 50.6089L29.6612 50.814ZM22.0014 44.1823C24.2468 46.3845 26.7718 48.3983 29.5087 50.1693C31.2542 47.2553 33.131 44.2325 35.0926 41.1762C32.8217 39.7025 30.7288 38.032 28.8605 36.2066C26.3863 38.8526 24.0815 41.5321 22.0014 44.1781V44.1823Z" fill="#1D1329"/>
  <path d="M39.1363 55.5364L38.9287 55.4568C35.6157 54.1966 32.4297 52.5889 29.4599 50.684L29.2734 50.5626L29.3878 50.3742C31.2053 47.3346 33.1669 44.1778 35.2174 40.9834L35.3445 40.7866L35.5394 40.9122C37.984 42.478 40.6064 43.801 43.3306 44.8393L43.5466 44.9231L43.4619 45.1366C42.0554 48.6534 40.6318 52.0823 39.2253 55.327L39.1363 55.5322V55.5364ZM29.8962 50.4202C32.7221 52.2163 35.747 53.7403 38.8864 54.9502C40.2336 51.8353 41.5978 48.5529 42.945 45.1868C40.3395 44.1778 37.8314 42.9135 35.4801 41.4272C33.5185 44.4835 31.6417 47.5063 29.8962 50.4202Z" fill="#1D1329"/>
  <path d="M49.5574 58.2285L49.354 58.1992C47.6636 57.9522 45.9435 57.6005 44.2362 57.1567C42.4525 56.692 40.6647 56.1226 38.9277 55.4611L38.7031 55.3774L38.7963 55.1597C40.1987 51.915 41.6222 48.4902 43.0287 44.9818L43.1135 44.7725L43.3295 44.8562C44.7573 45.4005 46.2274 45.8694 47.6975 46.2504C49.0998 46.6146 50.5149 46.9035 51.9045 47.1086L52.1417 47.1421L52.0994 47.3766C51.4003 51.086 50.5657 54.674 49.6124 58.0401L49.5574 58.2327V58.2285ZM39.3217 55.1136C40.974 55.7332 42.6644 56.2691 44.3548 56.7087C45.9774 57.1316 47.6128 57.4665 49.2227 57.7135C50.1293 54.4856 50.93 51.0567 51.6037 47.5147C50.2734 47.3096 48.9219 47.0291 47.5831 46.6816C46.1723 46.3132 44.7573 45.8652 43.3804 45.3502C42.0331 48.7121 40.6689 51.9945 39.3217 55.1136Z" fill="#1D1329"/>
  <path d="M55.6051 58.6638C53.5631 58.6638 51.4702 58.5089 49.3561 58.1949L49.0977 58.1572L49.1697 57.906C50.1187 54.5483 50.9533 50.9771 51.6481 47.2802L51.6905 47.0625L51.9108 47.096C54.6858 47.5021 57.4057 47.5858 59.99 47.343L60.2442 47.3179V47.5733C60.2146 51.3036 59.935 54.9126 59.4096 58.3038L59.3842 58.4796L59.2063 58.4964C58.0285 58.6052 56.8295 58.6638 55.6136 58.6638H55.6051ZM49.6823 57.7804C52.8683 58.2284 55.9907 58.3247 58.9775 58.0568C59.4689 54.8163 59.7358 51.3748 59.774 47.8245C57.2955 48.038 54.7027 47.9543 52.0591 47.5816C51.3854 51.1194 50.589 54.5483 49.6823 57.7804Z" fill="#1D1329"/>
  <path d="M58.9061 58.5258L58.9527 58.2369C59.4738 54.8708 59.7492 51.2828 59.7789 47.5734V47.3683L59.9907 47.3473C62.5157 47.1087 64.8882 46.5644 67.0447 45.7271L67.3158 45.6224L67.3582 45.9071C67.9174 49.5077 68.125 53.0119 67.9768 56.3152L67.9683 56.4618L67.8285 56.5162C65.189 57.5419 62.287 58.2076 59.2027 58.5007L58.9061 58.53V58.5258ZM60.2364 47.7828C60.1983 51.3331 59.9356 54.7704 59.4484 58.015C62.3251 57.7178 65.0365 57.0898 67.515 56.1436C67.6463 52.9994 67.4514 49.6751 66.9388 46.2546C64.8755 47.0292 62.6216 47.5399 60.2364 47.7828Z" fill="#1D1329"/>
  <path d="M67.4942 56.6418L67.5112 56.2902C67.6552 53.0162 67.4518 49.5454 66.8968 45.97L66.8676 45.7901L67.0409 45.7229C69.1846 44.8898 71.0826 43.7803 72.6841 42.4238L72.951 42.1978L73.0527 42.5327C74.0822 45.8611 74.6838 49.1393 74.8405 52.2751V52.3882L74.76 52.4593C72.79 54.1257 70.4556 55.4905 67.8247 56.5121L67.4942 56.6418ZM67.3845 46.0832C67.9014 49.4954 68.1043 52.811 67.9899 55.9552C70.4005 54.9839 72.5443 53.7154 74.3745 52.183C74.2177 49.2272 73.6585 46.1374 72.7137 42.9974C71.1758 44.2492 69.3837 45.2833 67.3798 46.083L67.3845 46.0832Z" fill="#1D1329"/>
  <path d="M74.4044 52.7651L74.3833 52.2962C74.2307 49.2023 73.6386 45.9617 72.6176 42.6667L72.5742 42.5245L72.6886 42.4282C74.3112 41.0549 75.6119 39.4473 76.5482 37.6428L76.7685 37.2241L76.9676 37.6553C78.3233 40.5902 79.1961 43.5377 79.5604 46.4223L79.5689 46.4935L79.535 46.5563C78.3742 48.7794 76.7727 50.7681 74.7688 52.4637L74.4087 52.7693L74.4044 52.7651ZM73.1046 42.6748C74.0579 45.7897 74.6332 48.8589 74.8196 51.8022C76.5948 50.2322 78.0268 48.4193 79.0859 46.4055C78.7428 43.7302 77.9505 40.9963 76.7346 38.2666C75.8152 39.912 74.5959 41.3895 73.1046 42.6748Z" fill="#1D1329"/>
  <path d="M79.1867 47.2091L79.0935 46.4723C78.7376 43.6379 77.8776 40.7323 76.5388 37.8393L76.4922 37.7388L76.543 37.6383C77.5132 35.7794 78.0894 33.728 78.2546 31.5425L78.3097 30.835L78.6822 31.4378C80.1862 33.8661 81.1821 36.3991 81.6397 38.9613V39.02C81.4321 41.7162 80.7203 44.2491 79.5214 46.5476L79.1782 47.2049L79.1867 47.2091ZM77.0091 37.7514C78.225 40.4016 79.0426 43.0601 79.4494 45.6726C80.4153 43.6169 80.9957 41.3854 81.1821 39.02C80.7712 36.734 79.9196 34.4732 78.6529 32.2877C78.4241 34.2346 77.8733 36.0683 77.0091 37.7556V37.7514Z" fill="#1D1329"/>
  <path d="M81.5079 40.841L81.1859 39.0449C80.741 36.5413 79.7666 34.0628 78.2923 31.6805L78.2541 31.6177L78.2546 31.5425C78.4283 29.3529 78.1821 27.0836 77.5297 24.7934L77.1992 23.6421L77.9364 24.5925C79.1227 26.1248 79.9784 27.7995 80.4784 29.5663C80.5419 29.8258 80.6097 30.1022 80.6817 30.3869C80.8851 31.1991 81.1139 32.116 81.2621 32.8528C81.6731 34.9378 81.8002 37.0102 81.6477 39.0198L81.5079 40.8368V40.841ZM78.7286 31.5089C79.8683 33.3636 80.7114 35.2727 81.2452 37.2112C81.2367 35.8086 81.0884 34.381 80.8088 32.9449C80.6648 32.2164 80.436 31.3037 80.2327 30.4999C80.1606 30.2152 80.0928 29.9431 80.0293 29.6919C79.6522 28.3605 79.0676 27.0836 78.2838 25.8778C78.7117 27.7827 78.86 29.6709 78.7286 31.5047V31.5089Z" fill="#1D1329"/>
  <path d="M80.035 29.7002L79.8952 29.2439C79.3995 27.699 78.6164 26.2339 77.5699 24.8774L77.5311 24.8018C76.8999 22.5829 75.8873 20.3639 74.5273 18.1994L74.8959 17.9272C75.2518 18.3166 75.5696 18.7395 75.8407 19.1749L75.8958 19.267C76.4677 20.2467 77.1795 21.4608 77.6794 22.4238C79.1326 25.5512 79.319 25.9531 80.1155 28.3647L80.34 29.1099C80.3908 29.2648 80.4374 29.4197 80.4798 29.5746L80.035 29.7002ZM77.9632 24.6343C78.1666 24.8981 78.3615 25.166 78.5437 25.4382C78.2683 24.7934 77.9166 24.0398 77.3913 22.901C77.6074 23.4788 77.798 24.0524 77.9632 24.6301V24.6343Z" fill="#1D1329"/>
  <path d="M75.4504 19.4177L75.1878 19.0242C74.9929 18.7479 74.7811 18.4799 74.548 18.2287C73.8702 17.1569 73.1203 16.1186 72.3026 15.1054C72.0018 14.7538 71.6332 14.3225 71.163 13.7699C71.1164 13.7196 71.074 13.6694 71.0274 13.6192L70.125 12.6646L70.4597 12.3506C70.769 12.6688 71.074 12.987 71.3663 13.3135L71.4511 13.4056C71.4722 13.4266 71.4892 13.4517 71.5104 13.4726C71.9086 13.9164 72.2941 14.3644 72.6627 14.8207C73.6583 15.993 73.9041 16.3279 74.726 17.4918L75.5733 18.7646C75.6665 18.8986 75.7555 19.0326 75.8445 19.1707L75.4547 19.4177H75.4504Z" fill="#1D1329"/>
  <path d="M45.9669 0.761771C44.8653 0.657103 43.4079 0.560809 42.0946 0.498009C40.8914 0.485449 39.7136 0.535689 38.5655 0.64873H38.5443L38.5234 0.648809C38.1845 0.619503 37.8452 0.61105 37.5106 0.619423C37.2691 0.63617 37.053 0.64873 36.8666 0.66129L36.8242 0.20494C37.0445 0.184007 37.2648 0.16726 37.4894 0.158887C38.5189 0.0918995 39.9551 0.0123522 41.1075 -0.00439453C41.4252 0.00816555 41.7599 0.0207256 42.1031 0.0374724C43.391 0.0542192 44.6959 0.14214 46.0177 0.305421L45.9669 0.761771Z" fill="#1D1329"/>
  <path d="M25.8059 3.37427L25.6406 2.94722C25.9711 2.81325 26.3058 2.69602 26.6447 2.58717C27.5429 2.26479 28.5342 1.91729 29.3392 1.67028C32.8598 0.765954 33.0674 0.711527 35.4145 0.376591L36.8169 0.21331C37.393 0.154696 37.9735 0.146323 38.5581 0.196563V0.652913C36.0458 0.904115 33.6818 1.46513 31.5338 2.31503L31.4921 2.33212L31.4448 2.33178C29.8137 2.33178 28.2631 2.55367 26.793 3.0184C26.5642 3.09794 26.3439 3.17749 26.1321 3.25704L25.8016 3.37427H25.8059ZM33.6436 1.11345C32.7709 1.27254 31.9913 1.46095 30.2586 1.90892C30.6398 1.8838 31.0296 1.87543 31.4109 1.87124C32.1311 1.58655 32.881 1.33534 33.6479 1.11345H33.6436Z" fill="#1D1329"/>
  <path d="M16.4453 8.65381L17.8434 7.45223C19.3347 6.16691 21.0548 5.04907 22.9528 4.13218L25.6346 2.95153C27.4478 2.22305 29.4009 1.85881 31.4515 1.87555L32.6292 1.88393L31.5362 2.31934C29.4052 3.16505 27.5199 4.28709 25.9311 5.65614L25.8761 5.70638L25.7998 5.71475C22.9867 5.97433 20.3981 6.69025 18.1018 7.83741L16.4496 8.66219L16.4453 8.65381ZM30.244 2.36958C28.6934 2.47844 27.2064 2.81337 25.8167 3.3702L23.1688 4.5341C21.8724 5.16211 20.6692 5.87803 19.5635 6.67769C21.453 5.94083 23.5035 5.46355 25.6812 5.2584C27.0115 4.12381 28.5409 3.15249 30.244 2.36958Z" fill="#1D1329"/>
  <path d="M12.7891 14.0756L13.1322 13.4016C14.2719 11.1659 15.8522 9.16459 17.8434 7.45223L17.89 7.4188C20.2413 6.24653 22.885 5.51385 25.7574 5.25009L26.4734 5.18311L25.9311 5.65202C24.3212 7.03781 23.0375 8.65806 22.1181 10.4709L22.0673 10.5672L21.9571 10.5881C18.822 11.2454 15.9623 12.2963 13.4542 13.6988L12.7891 14.0715V14.0756ZM18.123 7.81654C16.3944 9.31119 14.9752 11.0319 13.9033 12.9369C16.2546 11.706 18.8898 10.7765 21.7495 10.1653C22.5884 8.54502 23.7111 7.07131 25.0922 5.7818C22.563 6.08743 20.2201 6.76986 18.123 7.81654Z" fill="#1D1329"/>
  <path d="M11.0664 21.2308L11.1003 20.7619C11.3037 18.1285 11.9858 15.6541 13.1339 13.4017L13.1678 13.3389L13.2271 13.3054C15.7733 11.8777 18.6796 10.8101 21.8613 10.1444L22.3358 10.0439L22.1198 10.471C21.192 12.2964 20.637 14.3018 20.476 16.4328L20.4633 16.5836L20.3234 16.6338C17.0443 17.7893 14.0659 19.2505 11.4646 20.9754L11.0664 21.2392V21.2308ZM13.5152 13.6696C12.4814 15.7169 11.8417 17.9568 11.6045 20.3265C14.0998 18.7188 16.9299 17.3497 20.0226 16.2486C20.1921 14.2767 20.6836 12.4094 21.4928 10.6929C18.5652 11.3502 15.8835 12.3508 13.5152 13.6696Z" fill="#1D1329"/>
  <path d="M5.46653 36.1019L5.33943 35.6414C4.51329 32.6521 4.20401 29.6837 4.42432 26.8158V26.7488L4.47092 26.6944C6.24183 24.4336 8.5042 22.3779 11.2029 20.586L11.6012 20.3223L11.5673 20.7912C11.3682 23.366 11.6478 26.0371 12.3934 28.7292L12.4316 28.8715L12.3129 28.9678C9.69045 31.0904 7.47893 33.3596 5.75038 35.7126L5.46653 36.0977V36.1019ZM4.88188 26.9205C4.68699 29.5665 4.94966 32.3004 5.66565 35.0594C7.34759 32.8489 9.44473 30.7136 11.902 28.7082C11.2156 26.1795 10.936 23.6674 11.0716 21.2308C8.61011 22.918 6.52992 24.8271 4.88188 26.9205Z" fill="#1D1329"/>
  <path d="M9.46887 44.76L9.27822 44.4543C7.48613 41.5697 6.1643 38.6055 5.34239 35.6413L5.31274 35.5367L5.38052 35.4487C7.13449 33.0665 9.36719 30.768 12.0236 28.6203L12.2989 28.3984L12.3921 28.7375C13.1336 31.4128 14.3325 34.0923 15.9509 36.7006L16.0441 36.8513L15.917 36.9811C13.4471 39.4638 11.3457 41.9842 9.66799 44.4627L9.46887 44.76ZM5.81689 35.6288C6.60067 38.4129 7.83353 41.1971 9.48582 43.9101C11.1169 41.5446 13.1251 39.1498 15.4595 36.7843C13.93 34.2974 12.7819 31.7477 12.0405 29.1938C9.57055 31.2286 7.47765 33.3889 5.81689 35.6246V35.6288Z" fill="#1D1329"/>
  <path d="M16.0072 52.7567L15.7953 52.5473C13.2322 50.0102 11.0418 47.2889 9.27938 44.4503L9.20312 44.3247L9.28786 44.2033C10.9825 41.6996 13.1008 39.1583 15.592 36.6546L15.7996 36.4453L15.9563 36.6965C17.5535 39.2671 19.5405 41.7373 21.8664 44.0358L22.0105 44.1781L21.8876 44.3372C19.6803 47.1591 17.7569 49.9055 16.1681 52.5055L16.0156 52.7567H16.0072ZM9.75389 44.3414C11.4358 47.0251 13.5075 49.6083 15.9182 52.0198C17.4518 49.5287 19.2905 46.9079 21.3877 44.22C19.1762 42.0094 17.2656 39.6479 15.7107 37.1861C13.3721 39.5599 11.368 41.9676 9.74965 44.3372L9.75389 44.3414Z" fill="#1D1329"/>
  <path d="M24.6539 59.5807L24.442 59.4467C21.2773 57.4162 18.3709 55.0967 15.7951 52.5512L15.668 52.4256L15.7612 52.2707C17.3584 49.6582 19.2903 46.895 21.5103 44.0606L21.6713 43.8555L21.8577 44.0397C24.1963 46.3507 26.8357 48.4566 29.7124 50.303L29.8988 50.4244L29.7844 50.6128C27.9288 53.7151 26.2426 56.6584 24.7725 59.3672L24.6539 59.5849V59.5807ZM16.2526 52.3545C18.7141 54.7702 21.4806 56.9808 24.4844 58.9276C25.8994 56.3318 27.5094 53.5225 29.2718 50.5667C26.518 48.7832 23.9808 46.7611 21.7184 44.5463C19.6213 47.2384 17.782 49.8634 16.2526 52.3545Z" fill="#1D1329"/>
  <path d="M34.968 64.7263L34.7647 64.6509C31.1508 63.2735 27.6768 61.5235 24.4358 59.4469L24.2578 59.3338L24.3595 59.1496C25.8338 56.4366 27.5243 53.4892 29.3799 50.3785L29.5028 50.1733L29.7061 50.3031C32.6506 52.1913 35.8069 53.7823 39.0903 55.0341L39.3148 55.1178L39.2216 55.3355C37.7854 58.6556 36.3831 61.7495 35.0612 64.5379L34.968 64.7305V64.7263ZM24.8721 59.1747C27.9733 61.1467 31.2906 62.8172 34.735 64.1443C36.0018 61.4732 37.3363 58.5258 38.7047 55.369C35.5484 54.1507 32.5065 52.6184 29.6638 50.8139C27.8971 53.7697 26.2872 56.579 24.8764 59.1747H24.8721Z" fill="#1D1329"/>
  <path d="M46.3211 67.6652L46.1432 67.6401C44.3003 67.3679 42.4234 66.9869 40.5593 66.5013C38.6147 65.9947 36.6659 65.3709 34.7721 64.6508L34.5391 64.5629L34.645 64.341C35.9668 61.561 37.3649 58.4712 38.8011 55.1553L38.8901 54.9502L39.0977 55.0297C40.8178 55.6871 42.5887 56.2523 44.3596 56.7086C46.05 57.1482 47.7531 57.4957 49.4266 57.7427L49.685 57.7804L49.613 58.0316C48.6386 61.4814 47.554 64.6675 46.3889 67.4977L46.3211 67.6652ZM35.1703 64.3116C36.9751 64.9899 38.8265 65.576 40.6779 66.0575C42.4616 66.5222 44.2621 66.8907 46.0288 67.1586C47.1346 64.454 48.1641 61.427 49.0961 58.1572C47.4904 57.9102 45.8551 57.5752 44.2367 57.1524C42.5251 56.7086 40.8098 56.1644 39.1363 55.5364C37.7679 58.6889 36.4328 61.6405 35.1661 64.3116H35.1703Z" fill="#1D1329"/>
  <path d="M52.9525 68.1468C50.724 68.1468 48.4447 67.9752 46.14 67.6361L45.8477 67.5942L45.9578 67.3262C47.1144 64.5128 48.1948 61.3435 49.1649 57.9104L49.22 57.7178L49.4234 57.7471C52.7661 58.2369 56.041 58.3374 59.1549 58.0443L59.4515 58.015L59.4049 58.3039C58.8711 61.7747 58.083 64.9733 57.0705 67.8119L57.0197 67.9501L56.8714 67.9626C55.5877 68.084 54.2786 68.1426 52.9482 68.1426L52.9525 68.1468ZM46.5001 67.2258C49.9953 67.7198 53.4185 67.8161 56.685 67.523C57.6382 64.8268 58.3838 61.7998 58.905 58.5258C55.9012 58.7854 52.7618 58.6849 49.5589 58.2285C48.6311 61.4942 47.6016 64.5212 46.5001 67.2299V67.2258Z" fill="#1D1329"/>
  <path d="M56.5163 68.0002L56.6349 67.6611C57.639 64.8476 58.4185 61.6783 58.9481 58.2326L58.9735 58.0568L59.1515 58.0401C62.1934 57.7554 65.0531 57.098 67.6544 56.0849L67.9848 55.9551L67.9679 56.3068C67.8154 59.6938 67.2943 62.838 66.4131 65.6557L66.3792 65.7603L66.2732 65.8022C63.3966 66.92 60.2318 67.6485 56.8679 67.9667L56.5078 68.0002H56.5163ZM59.3802 58.4797C58.8676 61.7453 58.1304 64.7681 57.1941 67.4727C60.342 67.1461 63.3034 66.4553 66.0106 65.417C66.8282 62.7627 67.329 59.8154 67.4942 56.6418C64.9988 57.5755 62.2696 58.195 59.3802 58.4797Z" fill="#1D1329"/>
  <path d="M65.832 65.9781L65.9761 65.5218C66.8446 62.746 67.3615 59.6395 67.5097 56.2901L67.5182 56.1436L67.658 56.0891C70.2424 55.0843 72.5301 53.7488 74.4621 52.1118L74.8222 51.8062L74.8433 52.2751C75.0001 55.4863 74.6908 58.5132 73.9155 61.2723L73.8986 61.3393L73.8435 61.3853C71.6955 63.2023 69.1493 64.6928 66.2811 65.8065L65.832 65.9823V65.9781ZM67.9673 56.4576C67.819 59.606 67.3445 62.5408 66.5565 65.1994C69.1705 64.136 71.5006 62.7502 73.4876 61.0797C74.1994 58.5216 74.5044 55.7249 74.3985 52.7565C72.5429 54.2596 70.3822 55.503 67.9673 56.4576Z" fill="#1D1329"/>
  <path d="M73.2617 61.8708L73.4651 61.1465C74.2277 58.4377 74.5327 55.4568 74.376 52.2959V52.1828L74.4565 52.1116C76.4138 50.4537 77.9813 48.5153 79.1125 46.3424L79.4557 45.6851L79.5489 46.4219C79.9217 49.3777 79.7522 52.2289 79.0532 54.9L79.0362 54.946C77.7737 57.3701 76.024 59.5346 73.8421 61.3852L73.266 61.875L73.2617 61.8708ZM74.8462 52.3838C74.9776 55.2726 74.7318 58.0107 74.1048 60.5353C75.9732 58.8438 77.4856 56.9012 78.6126 54.7534C79.2354 52.367 79.426 49.8257 79.1718 47.1965C78.0661 49.1265 76.6129 50.8682 74.8462 52.3796V52.3838Z" fill="#1D1329"/>
  <path d="M78.0859 56.7799L78.6113 54.7829C79.2976 52.1704 79.4628 49.3737 79.0985 46.4765L79.09 46.4053L79.1239 46.3425C80.2932 44.0985 80.988 41.6283 81.1914 38.9949L81.2168 38.9111L81.5303 38.2915L81.6532 38.9739C81.9286 40.5063 82.0048 42.0553 81.8904 43.5793C81.399 47.7618 81.382 47.9251 80.8101 50.2403L80.7169 50.6046C80.3229 52.116 79.7636 53.5771 79.0477 54.9504L78.0944 56.7841L78.0859 56.7799ZM79.5645 46.4891C79.8357 48.6787 79.806 50.8139 79.484 52.857C79.7891 52.0867 80.0475 51.2954 80.2593 50.4873L80.3525 50.1273C80.916 47.8372 80.933 47.6781 81.4202 43.5332C81.488 42.654 81.488 41.7706 81.4202 40.8873C81.0855 42.8676 80.4627 44.7474 79.5645 46.4891Z" fill="#1D1329"/>
  <path d="M81.8801 43.5751L81.4183 43.5458C81.4353 43.2276 81.4522 42.9345 81.4649 42.6666C81.4988 41.465 81.4056 40.2508 81.1896 39.0493V38.9907C81.2997 37.5462 81.2616 36.0683 81.0752 34.5779L80.8125 32.9409L81.2701 32.8613C81.3802 33.414 81.4692 33.9666 81.537 34.5151L81.6852 35.4487C82.0242 39.3005 82.075 39.8489 81.931 42.6875C81.9225 42.9848 81.9098 43.282 81.8844 43.5793L81.8801 43.5751Z" fill="#1D1329"/>
  <path d="M14.2927 10.3579L13.9961 10.0063C14.4833 9.59177 14.8011 9.32383 15.1357 9.081C15.6187 8.68745 16.1017 8.30227 16.5296 7.98827C19.5164 5.96191 20.0163 5.62279 22.0626 4.5803C22.3507 4.42539 22.6473 4.27886 22.9439 4.13232L23.1515 4.54262C22.8295 4.7059 22.5414 4.85244 22.2787 4.98641C20.762 5.79444 19.3724 6.74064 18.1395 7.79987L18.1056 7.82499C16.572 8.7042 15.9661 9.05169 15.4069 9.4578C15.2798 9.56247 15.1527 9.66295 15.0256 9.76762C14.7672 9.97695 14.5172 10.1821 14.2884 10.3621L14.2927 10.3579Z" fill="#1D1329"/>
  <path d="M5.64453 20.7494L6.64014 18.7942C7.30529 17.488 8.11449 16.2445 9.05502 15.0932L10.4573 13.4646C11.9232 11.9699 13.1095 10.8102 13.9949 10.0105C16.2531 8.27724 16.3378 8.21025 17.8884 7.41896L19.6 6.54395L18.1468 7.79577C16.2065 9.46626 14.6601 11.4214 13.5458 13.6069L13.512 13.6697L13.4526 13.7032C10.8895 15.1392 8.7288 16.9353 7.02567 19.0412L5.64453 20.7494ZM16.4818 8.73359C15.9904 9.06015 15.4142 9.49975 14.2957 10.3622C13.4442 11.1326 12.2283 12.3174 10.8005 13.7744L9.41513 15.3904C8.96605 15.9431 8.54239 16.5167 8.15685 17.1112C9.59731 15.6751 11.2793 14.4107 13.1688 13.3431C14.0288 11.6685 15.1388 10.1236 16.4861 8.73777L16.4818 8.73359Z" fill="#1D1329"/>
  <path d="M4.36347 27.582L4.42279 26.82C4.64309 23.9521 5.38874 21.2517 6.63854 18.7983L6.66396 18.7564C8.40522 16.6044 10.6131 14.7707 13.2271 13.3054L13.8917 12.9327L13.5485 13.6068C12.43 15.8048 11.7606 18.2247 11.5657 20.7953L11.5573 20.9084L11.4641 20.9712C8.8077 22.7338 6.57923 24.7559 4.84221 26.9791L4.36771 27.5861L4.36347 27.582ZM7.04102 19.0244C5.93526 21.2014 5.23622 23.5795 4.9566 26.0957C6.62583 24.0944 8.69331 22.2649 11.1082 20.653C11.2988 18.3252 11.8708 16.1188 12.8028 14.0841C10.532 15.4489 8.59587 17.111 7.04102 19.0285V19.0244Z" fill="#1D1329"/>
  <path d="M1.79064 43.8806L1.57034 43.0809C0.73996 40.0916 0.434922 37.1233 0.655227 34.2554C1.00687 32.9072 1.50255 31.6052 2.14228 30.345C2.77778 29.089 3.56156 27.8581 4.47243 26.6984L4.94693 26.0913L4.88762 26.8533C4.67155 29.6667 4.97659 32.5807 5.79002 35.5197L5.81968 35.6244L5.75189 35.7123C4.86644 36.9181 4.09961 38.1532 3.47682 39.3883C2.85404 40.6191 2.36259 41.8626 2.01942 43.0767L1.79488 43.8764L1.79064 43.8806ZM4.37499 27.586C3.68018 28.5405 3.06587 29.5328 2.55324 30.5501C1.93045 31.781 1.44324 33.0538 1.10855 34.3307C0.917898 36.8553 1.15091 39.4971 1.81183 42.1682C2.13805 41.176 2.55747 40.1795 3.06163 39.1831C3.68442 37.9564 4.43854 36.7297 5.31128 35.5323C4.57835 32.8445 4.26484 30.1733 4.37923 27.5818L4.37499 27.586Z" fill="#1D1329"/>
  <path d="M5.77414 52.317L5.50724 51.8899C3.71514 49.0053 2.38907 46.0411 1.5714 43.0769L1.55446 43.0141L1.5714 42.9513C1.92304 41.7079 2.42297 40.4351 3.05846 39.1791C3.69396 37.9231 4.4735 36.6671 5.3759 35.4404L5.65975 35.0552L5.78685 35.5157C6.59605 38.4381 7.90517 41.3646 9.67184 44.2073L9.7481 44.3329L9.66337 44.4543C8.80333 45.7271 8.05345 46.9957 7.42643 48.2307C6.80364 49.4658 6.29525 50.6758 5.92666 51.8313L5.77414 52.3086V52.317ZM2.03743 43.0183C2.8085 45.7731 4.02018 48.5322 5.64704 51.2284C6.00716 50.1943 6.46471 49.1225 7.01548 48.034C7.62979 46.8198 8.36696 45.5764 9.20158 44.3287C7.54082 41.6367 6.29101 38.8693 5.47334 36.1019C4.70651 37.1821 4.03712 38.2873 3.47789 39.3884C2.86358 40.5984 2.3806 41.8209 2.03743 43.0183Z" fill="#1D1329"/>
  <path d="M12.2823 60.2382L12.0281 59.987C9.46494 57.4499 7.2746 54.7285 5.51216 51.8899L5.45709 51.802L5.49098 51.7015C5.86804 50.5209 6.38491 49.29 7.02041 48.034C7.6559 46.7822 8.41849 45.4927 9.287 44.2073L9.48582 43.9101L9.67677 44.2157C11.4223 47.0208 13.5914 49.717 16.1292 52.229L16.2563 52.3546L16.1631 52.5096C15.3496 53.8409 14.6209 55.143 13.9897 56.3864C13.3626 57.6257 12.8331 58.8105 12.4136 59.9116L12.2865 60.2424L12.2823 60.2382ZM5.96125 51.7434C7.63895 54.4229 9.70219 57.0019 12.1044 59.4134C12.5068 58.396 12.9983 57.3075 13.5702 56.1771C14.1803 54.9713 14.8836 53.7111 15.6674 52.4216C13.2525 50.0143 11.1681 47.4353 9.46918 44.7558C8.69388 45.9281 8.00754 47.0962 7.43136 48.2349C6.82552 49.4323 6.32983 50.6088 5.96125 51.735V51.7434Z" fill="#1D1329"/>
  <path d="M20.8993 67.0288L20.6748 66.8823C17.51 64.8518 14.5997 62.5325 12.0281 59.987L11.9219 59.8821L11.9727 59.744C12.3964 58.6303 12.9347 57.4289 13.5702 56.1771C14.2057 54.9253 14.9435 53.6105 15.7612 52.2707L15.9128 52.0195L16.1246 52.2289C18.6751 54.7534 21.5602 57.0519 24.6953 59.0616L24.8733 59.1746L24.7716 59.3588C24.0132 60.753 23.3142 62.0844 22.6872 63.3194C22.0559 64.5671 21.4882 65.731 21.0095 66.7818L20.8993 67.0247V67.0288ZM12.4599 59.7691C14.9214 62.189 17.6922 64.4038 20.7002 66.3548C21.1577 65.3667 21.6873 64.2782 22.272 63.1185C22.8736 61.9336 23.5387 60.6609 24.2589 59.3295C21.2509 57.3827 18.4717 55.1721 16.0018 52.7564C15.2476 53.9998 14.5698 55.2182 13.9809 56.3821C13.3793 57.5669 12.8666 58.7057 12.4557 59.7691H12.4599Z" fill="#1D1329"/>
  <path d="M31.1887 72.1575L30.998 72.0863C27.3842 70.7089 23.9102 68.9588 20.6691 66.8822L20.5039 66.7734L20.5844 66.5934C21.0674 65.5383 21.6351 64.3702 22.2706 63.1142C22.8976 61.875 23.6009 60.5394 24.3592 59.141L24.4779 58.9233L24.6897 59.0573C27.9011 61.1172 31.3497 62.8546 34.9296 64.2195L35.1627 64.3074L35.0567 64.5293C34.3746 65.9654 33.7095 67.3177 33.0825 68.5569C32.4512 69.8046 31.8454 70.9559 31.2819 71.9775L31.1845 72.1533L31.1887 72.1575ZM21.0928 66.6059C24.2025 68.582 27.524 70.2567 30.9769 71.5881C31.5064 70.6168 32.0784 69.5324 32.6715 68.3601C33.2646 67.1879 33.8917 65.9109 34.5356 64.5628C31.0828 63.2315 27.7613 61.5568 24.6516 59.5806C23.9398 60.8953 23.2789 62.1513 22.6858 63.3236C22.0884 64.5 21.5546 65.6053 21.0928 66.6059Z" fill="#1D1329"/>
  <path d="M42.5231 75.0967L42.3748 75.0758C40.5276 74.8037 38.6508 74.4227 36.7909 73.937C34.8421 73.4305 32.8974 72.8066 31.0037 72.0865L30.7579 71.9944L30.885 71.7641C31.4443 70.7468 32.0459 69.6038 32.6771 68.3604C33.3042 67.1253 33.9651 65.773 34.6472 64.3411L34.7404 64.1485L34.9395 64.2239C36.8206 64.9398 38.7482 65.5553 40.6801 66.0577C42.5231 66.5391 44.3872 66.916 46.2132 67.1839L46.5055 67.2258L46.3954 67.4937C45.798 68.9465 45.171 70.3155 44.5397 71.5674C43.9042 72.8192 43.256 73.9622 42.6078 74.967L42.5273 75.0926L42.5231 75.0967ZM31.4146 71.7516C33.2152 72.4256 35.0624 73.0118 36.9095 73.4932C38.7016 73.958 40.5107 74.3306 42.2943 74.5985C42.9044 73.6398 43.5187 72.5512 44.1203 71.3664C44.7092 70.2067 45.2896 68.9381 45.8488 67.5942C44.0991 67.3262 42.3197 66.9578 40.5573 66.5015C38.6804 66.0116 36.8036 65.4171 34.9692 64.7263C34.3167 66.0912 33.6855 67.3807 33.0839 68.5613C32.4992 69.7168 31.9357 70.7886 31.4104 71.7516H31.4146Z" fill="#1D1329"/>
  <path d="M49.1876 75.5867C46.9591 75.5867 44.6795 75.4149 42.3748 75.0758L42.0234 75.0257L42.2141 74.7284C42.8538 73.7362 43.4935 72.6058 44.1206 71.3707C44.7476 70.1315 45.3661 68.7708 45.9593 67.3306L46.0271 67.1631L46.205 67.1882C49.8527 67.7241 53.4242 67.833 56.8305 67.5148L57.1906 67.4813L57.072 67.8204C56.5508 69.2816 55.9662 70.6548 55.3307 71.9066C54.6952 73.1626 54.0046 74.3098 53.2759 75.3146L53.2124 75.3983L53.1065 75.4067C51.8228 75.5281 50.5136 75.5867 49.1833 75.5867H49.1876ZM42.7945 74.674C46.2813 75.1597 49.7002 75.256 52.9624 74.9587C53.653 73.9916 54.3139 72.8989 54.9197 71.6973C55.4959 70.5585 56.0333 69.3148 56.5163 68.0002C53.2414 68.2807 49.8146 68.1679 46.3236 67.6655C45.7474 69.0555 45.1458 70.3701 44.5358 71.5717C43.9638 72.7021 43.3792 73.7446 42.7945 74.674Z" fill="#1D1329"/>
  <path d="M52.6016 75.4524L52.8981 75.0421C53.6141 74.0541 54.2927 72.9324 54.9197 71.6973C55.5468 70.4622 56.1222 69.1054 56.6391 67.661L56.6899 67.5228L56.8382 67.5103C60.1597 67.1963 63.2821 66.4803 66.1207 65.3751L66.5697 65.1992L66.4257 65.6556C65.9724 67.1 65.4216 68.4732 64.7861 69.7292C64.1506 70.9852 63.4219 72.1449 62.6212 73.1665L62.5831 73.2167L62.5238 73.2419C59.6471 74.3597 56.4823 75.0882 53.1184 75.4064L52.61 75.4524H52.6016ZM57.0246 67.9499C56.5162 69.3608 55.9485 70.688 55.3342 71.8979C54.7834 72.9865 54.1903 73.9913 53.5675 74.8914C56.6772 74.5565 59.609 73.8657 62.2865 72.8316C63.0533 71.8435 63.7481 70.7298 64.3624 69.5199C64.9217 68.4188 65.4131 67.2256 65.8283 65.9696C63.1169 66.9744 60.1555 67.6401 57.0204 67.9457L57.0246 67.9499Z" fill="#1D1329"/>
  <path d="M61.7344 73.5436L62.247 72.8863C63.0265 71.8857 63.7383 70.7553 64.3653 69.5244C64.9881 68.2935 65.5304 66.9454 65.9795 65.5219L66.0134 65.4173L66.1193 65.3754C68.9367 64.2785 71.4363 62.8215 73.5503 61.0338L74.1265 60.5439L73.9232 61.2682C73.5249 62.6875 72.9996 64.0398 72.3641 65.2958C71.7286 66.556 70.9702 67.7283 70.1144 68.7834L70.0848 68.8127C67.9368 70.6297 65.3906 72.1202 62.5224 73.2338L61.7429 73.5353L61.7344 73.5436ZM66.3862 65.7648C65.9413 67.1715 65.3991 68.507 64.7805 69.7296C64.2764 70.7218 63.7171 71.6554 63.1113 72.5053C65.6151 71.4545 67.8478 70.1022 69.7628 68.4861C70.5932 67.4604 71.3261 66.3174 71.9447 65.0949C72.4615 64.0775 72.9021 62.9932 73.258 61.8669C71.2626 63.4453 68.9578 64.7558 66.3904 65.7648H66.3862Z" fill="#1D1329"/>
  <path d="M70.0805 68.8209L69.75 68.5027C70.5846 67.4728 71.3218 66.3257 71.9488 65.0948C72.5716 63.8639 73.0885 62.5367 73.4782 61.1467L73.4952 61.0797L73.5503 61.0338C75.6898 59.2251 77.4014 57.1024 78.6342 54.7327L79.5875 52.8989L79.0621 54.896C78.702 56.265 78.1978 57.6006 77.5581 58.8608L77.4522 59.0701L77.2488 58.9571L77.448 59.0743C75.2703 62.8758 75.139 63.1019 72.9614 65.8986C72.1098 66.9453 71.1439 67.925 70.0805 68.8209ZM73.8986 61.3393C73.5003 62.7334 72.9825 64.0648 72.3555 65.2999C72.0801 65.8484 71.7793 66.3801 71.4574 66.8909C71.8556 66.4764 72.2327 66.0493 72.5928 65.6097C74.7492 62.8423 74.8806 62.6162 77.0412 58.844L77.1387 58.6514C77.4522 58.0318 77.736 57.3954 77.9818 56.7423C76.8718 58.4296 75.5033 59.9703 73.8977 61.3351L73.8986 61.3393Z" fill="#1D1329"/>
  <path d="M77.4503 59.0576L77.0352 58.8482L77.1368 58.6515C77.7596 57.4206 78.2553 56.1185 78.6069 54.7788L78.6239 54.7327C79.0603 53.8954 79.4373 53.0245 79.7551 52.1286C79.9076 51.6388 80.0728 51.0945 80.2592 50.479L80.7041 50.6004C80.5558 51.1657 80.3863 51.7225 80.1957 52.2709C79.3822 54.9002 78.9755 55.9845 77.6579 58.6515L77.4461 59.0618L77.4503 59.0576Z" fill="#1D1329"/>
  <path d="M4.78238 22.4953L4.36719 22.286C4.61291 21.8003 4.87982 21.3231 5.16791 20.8583C6.46008 18.5682 6.88798 17.9109 8.3242 16.0353C8.55722 15.7129 8.7987 15.3989 9.04867 15.0933L9.41302 15.378C9.14611 15.7213 8.90886 16.0311 8.69279 16.3116C8.07 17.1699 7.51924 18.07 7.04474 19.0036L7.01932 19.0455C6.48974 19.6986 6.00676 20.3852 5.56615 21.097C5.33314 21.5073 5.0747 21.9678 4.77814 22.4995L4.78238 22.4953Z" fill="#1D1329"/>
  <path d="M1.11 34.3309L0.652441 34.2555C0.75412 32.9325 0.970189 31.6347 1.29217 30.3912C2.58858 26.1292 2.66484 25.8738 4.33407 22.3528L4.36797 22.29C5.00346 21.0423 5.77453 19.8533 6.65998 18.7564L8.04113 17.0482L7.04474 19.0036C5.82459 21.4068 5.09243 24.0484 4.87636 26.8577V26.9246L4.82976 26.9791C3.94007 28.1178 3.17324 29.3194 2.54622 30.5503C1.92343 31.7812 1.43622 33.054 1.10152 34.3309H1.11ZM5.74063 20.8246C5.39323 21.3689 5.0747 21.9259 4.78238 22.4953L4.7535 22.5537C3.10121 26.0371 3.02495 26.2924 1.74126 30.5168C1.62263 30.969 1.52095 31.4337 1.43198 31.9026C1.64381 31.3793 1.88106 30.8559 2.1395 30.3452C2.76652 29.1059 3.53759 27.9001 4.42728 26.753C4.59251 24.6806 5.03312 22.6919 5.74063 20.8246Z" fill="#1D1329"/>
  <path d="M1.1934 50.0728C1.01546 49.4322 0.862943 48.7833 0.735844 48.1511L0.320654 45.5763C-0.0564063 41.3352 -0.0775894 41.084 0.117296 37.4332C0.202028 36.353 0.379967 35.2728 0.659584 34.2178L1.11714 34.2931C0.901072 37.1066 1.20611 40.0205 2.01954 42.9638L2.03649 43.0266L2.01954 43.0894C1.35439 45.459 1.22729 47.7785 1.64672 49.9807L1.1934 50.0854V50.0728ZM0.608745 37.1401C0.600272 37.2448 0.591798 37.3536 0.583325 37.4583C0.392677 41.0672 0.41386 41.3184 0.782447 45.5135L0.956149 46.6062C1.01546 45.4297 1.21458 44.2282 1.55351 43.0182C1.01122 41.0421 0.693477 39.0743 0.608745 37.1401Z" fill="#1D1329"/>
  <path d="M5.38504 59.0869L4.80462 58.1532C3.16081 55.5072 1.9449 52.7901 1.19501 50.0729C0.758641 47.7828 0.88574 45.3964 1.57207 42.9597L1.79662 42.1601L2.01692 42.9597C2.82612 45.882 4.13524 48.8043 5.90191 51.6513L5.95699 51.7392L5.92309 51.8397C5.20287 54.088 4.96985 56.1604 5.22829 58.0025L5.38081 59.0869H5.38504ZM1.80933 43.8933C1.33059 45.9783 1.27551 48.0214 1.6441 49.9682C2.30078 52.3337 3.31757 54.7118 4.67753 57.0438C4.60127 55.4319 4.86394 53.6735 5.45283 51.7978C3.85138 49.2063 2.627 46.5519 1.80933 43.8892V43.8933Z" fill="#1D1329"/>
  <path d="M10.7836 65.5805C8.43231 63.2527 6.42415 60.7574 4.80575 58.1575L4.77186 58.0696C4.50072 56.1604 4.7422 54.0169 5.48361 51.7058L5.63613 51.2285L5.90304 51.6556C7.64853 54.4606 9.81769 57.1569 12.3554 59.6689L12.4613 59.7736L12.4105 59.9117C11.5971 62.0469 11.1819 63.9016 11.1819 65.4214V65.9741L10.7836 65.5805ZM5.22942 57.9565C6.73342 60.3723 8.58483 62.6959 10.7328 64.8771C10.8175 63.4495 11.2158 61.7748 11.9233 59.8866C9.53383 57.5086 7.47059 54.9672 5.78018 52.3254C5.18281 54.3685 4.9964 56.2609 5.22518 57.9607L5.22942 57.9565Z" fill="#1D1329"/>
  <path d="M18.9759 72.0698L18.7132 71.8981C15.8111 70.0392 13.1463 67.9124 10.7865 65.5762L10.7187 65.5092V65.4129C10.7187 63.8387 11.1466 61.9296 11.9812 59.74L12.1083 59.4092L12.3625 59.6604C14.9129 62.185 17.7939 64.4835 20.9332 66.4931L21.1027 66.602L21.0179 66.782C20.0774 68.8376 19.4207 70.5123 19.0648 71.7683L18.9801 72.0698H18.9759ZM11.1805 65.3208C13.4301 67.5356 15.9594 69.5619 18.7005 71.3455C19.0648 70.1481 19.6707 68.6116 20.5053 66.7736C17.51 64.8352 14.7438 62.6414 12.2823 60.2382C11.5663 62.1934 11.1932 63.9015 11.1762 65.3208H11.1805Z" fill="#1D1329"/>
  <path d="M28.3485 76.7336L28.1832 76.6708C24.8702 75.4106 21.6842 73.8029 18.7144 71.898L18.5703 71.8058L18.6169 71.6426C18.977 70.3656 19.6422 68.6658 20.5912 66.5934L20.7013 66.3506L20.9259 66.4971C24.1372 68.557 27.5859 70.2945 31.1658 71.6593L31.4115 71.7514L31.2844 71.9817C30.1829 73.9829 29.2297 75.5362 28.4459 76.5912L28.34 76.7336H28.3485ZM19.1084 71.6091C21.9596 73.4261 25.0142 74.9626 28.1832 76.181C28.9035 75.1887 29.7677 73.7778 30.7591 71.9943C27.319 70.6671 24.0059 68.9966 20.9047 67.0288C20.0616 68.8877 19.4558 70.4242 19.1084 71.6091Z" fill="#1D1329"/>
  <path d="M38.7022 79.4259L38.6047 79.4133C36.9143 79.1663 35.1942 78.8146 33.4869 78.3708C31.7033 77.9061 29.9154 77.3367 28.1784 76.6752L27.8945 76.5664L28.0725 76.3235C28.8435 75.281 29.7883 73.7487 30.8771 71.7642L30.9746 71.5884L31.1658 71.6593C33.0426 72.3752 34.9739 72.9909 36.9058 73.4933C38.7488 73.9706 40.6087 74.3516 42.4389 74.6195L42.7905 74.6698L42.5999 74.967C41.3289 76.939 40.041 78.4169 38.7784 79.3631L38.7022 79.4217V79.4259ZM28.6275 76.3528C30.2586 76.9641 31.932 77.4916 33.6055 77.927C35.262 78.3583 36.9355 78.7016 38.5751 78.9444C39.7063 78.0778 40.8629 76.7589 42.0152 75.0215C40.2824 74.7535 38.5285 74.3893 36.7872 73.9371C34.9062 73.4473 33.0209 72.8486 31.1906 72.1578C30.212 73.9287 29.3519 75.3355 28.6275 76.3486V76.3528Z" fill="#1D1329"/>
  <path d="M44.8581 79.8781C42.816 79.8781 40.7231 79.7232 38.609 79.4091L38.0625 79.3296L38.5031 78.9989C39.7233 78.0862 40.9731 76.6459 42.2144 74.7242L42.2943 74.5985L42.4432 74.6196C46.0909 75.1555 49.6666 75.2643 53.0686 74.9461L53.577 74.9001L53.2805 75.3104C51.8527 77.2823 50.2598 78.756 48.5439 79.6897L48.455 79.719C47.2772 79.8278 46.0782 79.8864 44.8623 79.8864L44.8581 79.8781ZM39.2022 79.0323C42.3415 79.4552 45.4173 79.5348 48.3575 79.2584C49.8742 78.4253 51.2977 77.1441 52.5941 75.4443C49.3531 75.7081 45.9681 75.5909 42.5194 75.0927C41.4179 76.7841 40.3037 78.1071 39.2022 79.0282V79.0323Z" fill="#1D1329"/>
  <path d="M47.3359 79.8195L48.3188 79.2836C49.9711 78.3834 51.5127 76.9597 52.8981 75.0421L52.9624 74.9587L53.0681 74.9503C56.3896 74.6363 59.512 73.9204 62.3506 72.8151L63.1301 72.5137L62.6175 73.171C61.0541 75.1764 59.1943 76.7087 57.0971 77.7261C54.4408 78.7602 51.5392 79.4259 48.455 79.719L47.3402 79.8236L47.3359 79.8195ZM53.2121 75.3941C52.0513 76.9809 50.7803 78.2369 49.4288 79.1454C52.0852 78.8188 54.5933 78.1992 56.898 77.3074C58.6943 76.4324 60.3127 75.168 61.7108 73.5394C59.0799 74.4772 56.2286 75.1011 53.2121 75.3941Z" fill="#1D1329"/>
  <path d="M57.077 77.7299L56.8906 77.3113C58.9242 76.3232 60.7248 74.8369 62.2457 72.8901L62.2839 72.8399L62.3432 72.8147C65.1605 71.7178 67.6601 70.2567 69.7742 68.4731L70.1047 68.7913C69.3887 69.6789 68.588 70.4995 67.7279 71.228C67.7195 71.2322 65.4698 73.0115 65.4698 73.0115C62.089 75.3016 61.8856 75.4398 59.0471 76.8758C58.4116 77.1815 57.7507 77.4704 57.077 77.7341V77.7299ZM62.5762 73.2167C61.7755 74.234 60.9027 75.13 59.9579 75.8962C61.7839 74.9541 62.3601 74.5648 65.1987 72.6431L67.4356 70.8805C67.6008 70.7423 67.7618 70.5958 67.9228 70.4493C66.3044 71.5336 64.5166 72.4631 62.5804 73.2167H62.5762Z" fill="#1D1329"/>
  <path d="M67.7308 71.2283L67.4258 70.885C67.7393 70.6045 68.0994 70.2737 68.4849 69.9095C68.9298 69.4657 69.3535 68.9968 69.7475 68.5028L69.7771 68.4735C70.5312 67.8371 71.2388 67.1546 71.887 66.4345L72.5987 65.6098L72.9546 65.9028C72.7258 66.1833 72.4843 66.4638 72.2386 66.736L71.5396 67.5482C70.599 68.5069 69.6415 69.449 68.8112 70.2361C68.4638 70.5835 68.1036 70.9143 67.7351 71.2283H67.7308Z" fill="#1D1329"/>
  <path d="M0.57898 37.471L0.117188 37.4292C0.155317 36.9519 0.210393 36.4704 0.286653 35.9931C0.621347 33.1713 0.701843 32.7861 1.19753 30.7681L1.24413 30.5881C1.26108 30.5253 1.27802 30.4625 1.29497 30.3955L1.74405 30.5086L1.69745 30.697C1.40936 31.8567 1.21458 33.0622 1.11714 34.2931C0.964622 34.8835 0.841651 35.474 0.748446 36.0559C0.697606 36.4704 0.64253 36.9393 0.583217 37.471H0.57898Z" fill="#1D1329"/>
  <path d="M1.43766 51.1281C1.36563 50.8727 1.30208 50.609 1.24701 50.3494C1.23853 50.3075 1.22582 50.2657 1.21735 50.228C1.14956 49.9475 1.07754 49.6586 1.00976 49.3781C0.912314 48.9845 0.823344 48.5868 0.742848 48.1933C0.742848 48.1807 0.738612 48.164 0.734375 48.1514L1.18769 48.0635C1.18769 48.0635 1.19193 48.0886 1.19617 48.1053C1.26819 48.4654 1.3614 48.8673 1.45884 49.2818C1.51392 49.5079 1.57323 49.7298 1.63678 49.9559C1.65372 50.0522 1.67491 50.1484 1.69609 50.2447C1.76388 50.5169 1.82743 50.7765 1.8825 51.0151L1.43342 51.1281H1.43766Z" fill="#1D1329"/>
  <path d="M6.02964 61.6158C5.94491 61.4776 5.86441 61.3395 5.78815 61.1971C5.31789 60.3807 4.73323 59.3717 4.32228 58.5804C2.83946 55.3818 2.6827 55.0469 1.89045 52.6395L1.44137 51.1323C1.34393 50.7764 1.25919 50.4122 1.19141 50.0563L1.64473 49.9517C2.38614 52.627 3.5851 55.3064 5.2035 57.9148L5.23739 58.0027C5.38991 59.0787 5.71189 60.0751 6.19487 60.9752C6.19487 60.9794 6.20334 60.9878 6.20758 60.992L6.43212 61.3813L6.03388 61.6116L6.02964 61.6158ZM4.02571 56.8346C4.22483 57.2658 4.45785 57.7682 4.73747 58.3753C4.77983 58.4548 4.8222 58.5386 4.8688 58.6265C4.83491 58.459 4.80525 58.2874 4.77983 58.1157C4.51716 57.6887 4.26296 57.2616 4.02148 56.8346H4.02571Z" fill="#1D1329"/>
  <path d="M11.9593 69.0682C11.8237 68.9342 11.6881 68.8002 11.5568 68.6662L10.5527 67.607C8.43439 65.1368 8.34966 65.0406 7.27356 63.5124L6.02799 61.6242C5.37554 60.565 4.95612 59.3718 4.76971 58.0697L4.61719 56.9854L5.19761 57.919C6.79482 60.4896 8.7818 62.9598 11.1077 65.2583L11.1755 65.3252V65.4215C11.1755 66.8701 11.5483 67.988 12.2855 68.75L11.955 69.0723L11.9593 69.0682ZM5.48146 59.2043C5.69753 59.983 6.01104 60.7115 6.42199 61.3772L7.65909 63.2528C8.71825 64.7559 8.79874 64.8521 10.8916 67.293L10.9806 67.3893C10.8069 66.8366 10.7179 66.2086 10.7095 65.5136C8.70554 63.5208 6.94733 61.4023 5.47722 59.2043H5.48146Z" fill="#1D1329"/>
  <path d="M19.4511 74.9L18.5529 74.3223C16.1381 72.7732 13.9181 71.0064 11.9565 69.0638C11.1304 68.2097 10.7109 66.983 10.7109 65.413V64.8604L11.1049 65.2497C13.4393 67.5608 16.083 69.6667 18.9554 71.513L19.0995 71.6051L19.0529 71.7684C18.6207 73.3007 18.7521 73.8283 18.8707 74.0083L19.4469 74.9H19.4511ZM11.1981 65.9866C11.2829 67.163 11.6515 68.0883 12.2912 68.7456C14.0918 70.525 16.1126 72.1619 18.3072 73.6147C18.2776 73.1709 18.3665 72.5723 18.5699 71.8103C15.8923 70.0812 13.4181 68.1218 11.1981 65.9866Z" fill="#1D1329"/>
  <path d="M26.4887 78.3166L26.4336 78.2956C23.6756 77.2448 21.0277 75.9092 18.5577 74.3266L18.4899 74.2596C18.2061 73.82 18.2484 72.966 18.617 71.6471L18.7018 71.3457L18.9687 71.5174C21.9131 73.4056 25.0694 74.9965 28.3528 76.2441L28.6367 76.353L28.4587 76.5958C27.6368 77.7053 27.031 78.2496 26.5522 78.3124L26.4929 78.3207L26.4887 78.3166ZM18.8543 73.9708C21.2649 75.5115 23.8493 76.8135 26.5353 77.8435C26.7344 77.789 27.1411 77.5336 27.8953 76.5623C24.7856 75.3566 21.786 73.8452 18.9814 72.07C18.6721 73.28 18.7568 73.774 18.8585 73.9708H18.8543Z" fill="#1D1329"/>
  <path d="M35.572 80.6023C35.4195 80.6023 35.267 80.5939 35.1144 80.573C33.7037 80.3678 32.2717 80.0748 30.8482 79.7064C29.3611 79.3212 27.8783 78.8441 26.4336 78.2956L25.582 77.9731L26.4844 77.8558C26.6751 77.8307 27.1326 77.6004 28.0774 76.3235L28.1832 76.181L28.3486 76.2439C30.0686 76.9013 31.8395 77.4665 33.6062 77.9228C35.2966 78.3624 36.9998 78.7099 38.6732 78.9569L39.2197 79.0365L38.7791 79.3672C37.6776 80.1878 36.6015 80.6023 35.5678 80.6023H35.572ZM35.1695 80.1208C36.0719 80.2255 37.0379 79.9617 38.0335 79.3254C36.5295 79.0867 35.0001 78.7643 33.4833 78.3708C31.7548 77.9228 30.0263 77.3744 28.3401 76.738C27.8571 77.3744 27.4504 77.8098 27.103 78.061C28.3697 78.5257 29.6661 78.9318 30.9626 79.2667C32.3649 79.631 33.7799 79.9199 35.1695 80.125V80.1208Z" fill="#1D1329"/>
  <path d="M40.8969 81C39.3633 80.9498 37.389 80.8242 35.974 80.6902C35.6817 80.6525 35.3936 80.6148 35.1055 80.573L35.1695 80.1208C36.216 80.2464 37.3382 79.8696 38.5032 79.003L38.5795 78.9443L38.6769 78.9569C42.0154 79.4467 45.2903 79.5472 48.4085 79.2542L49.5227 79.1495L48.5398 79.6812C47.379 80.3134 46.1631 80.6944 44.926 80.8116C43.7821 80.8828 42.134 80.9791 40.8927 80.9958L40.8969 81ZM37.067 80.3259C38.3041 80.4222 39.7361 80.506 40.9054 80.5437C42.1213 80.5269 43.7609 80.4306 44.8921 80.3594C45.6674 80.2841 46.4385 80.0999 47.1883 79.8068C44.4472 79.9701 41.6002 79.8403 38.7066 79.4216C38.1558 79.8235 37.6093 80.125 37.0713 80.3218L37.067 80.3259Z" fill="#1D1329"/>
  <path d="M44.9297 80.8157L44.8789 80.3593L45.1797 80.3258C46.2516 80.1835 47.3063 79.832 48.3188 79.2836L48.4085 79.2542C51.4504 78.9695 54.3096 78.312 56.9109 77.2988L57.0974 77.7175C56.7669 77.8766 56.428 78.0273 56.0806 78.1613C56.0721 78.1613 55.4705 78.379 55.4705 78.379C54.5511 78.7056 53.5047 79.074 52.6616 79.3294C49.141 80.2337 48.9334 80.2839 46.5863 80.6231L45.239 80.778C45.1373 80.7905 45.0357 80.8031 44.9297 80.8115V80.8157ZM48.497 79.7062C48.3445 79.7899 48.1877 79.8653 48.0352 79.9406C48.6792 79.8318 49.2087 79.7229 49.9925 79.5303C49.5011 79.5973 49.0011 79.6559 48.497 79.7062Z" fill="#1D1329"/>
  <path d="M56.08 78.1656L55.9063 77.7385C55.9487 77.7218 55.991 77.7051 56.0292 77.6883C56.3215 77.5711 56.6096 77.4413 56.8892 77.3073C57.0587 77.2403 57.2239 77.1733 57.3891 77.1064C57.6052 77.0101 57.8213 76.9138 58.0289 76.8217C58.3085 76.6961 58.5796 76.5746 58.8253 76.4658C58.8381 76.4616 59.0372 76.8719 59.0372 76.8719C58.5627 77.1022 58.0755 77.3199 57.5755 77.525C57.1053 77.7344 56.6265 77.9437 56.1986 78.1153C56.1563 78.1321 56.1139 78.1488 56.0715 78.1656H56.08Z" fill="#1D1329"/>
  <path d="M11.995 69.1054L11.9441 69.0552C11.8128 68.9254 11.6857 68.7956 11.5586 68.6658L11.8891 68.3477L12.2746 68.7328L12.3254 68.7831L11.995 69.1054Z" fill="#1D1329"/>
  <path d="M18.7017 74.477L17.7655 73.8574C15.304 72.078 15.2574 72.0403 14.0542 71.0062L13.6983 70.6838C13.1433 70.1982 12.6095 69.7042 12.0884 69.1934C12.0545 69.1599 12.0248 69.1306 11.9952 69.1013L11.9565 69.0638L12.2875 68.7412C12.3299 68.7831 12.3765 68.8291 12.4188 68.871C12.8594 69.298 13.4144 69.8004 13.9059 70.2484L14.0118 70.3447C15.4989 71.6426 17.1045 72.8484 18.8077 73.9411L18.8755 74.0081C18.8966 74.0458 18.9263 74.0709 18.9559 74.0918L18.7017 74.477Z" fill="#1D1329"/>
  <path d="M26.4548 78.3163C26.3785 78.3163 26.3065 78.3038 26.2387 78.2787L25.9379 78.1614C24.0286 77.352 22.6178 76.7073 21.7055 76.2272C20.8455 75.7415 19.6084 75.0382 18.7102 74.4813C18.6212 74.4227 18.5492 74.3474 18.4899 74.2553L17.918 73.3677L18.8119 73.9413C21.2564 75.5071 23.8789 76.8301 26.6031 77.8684L27.4504 78.1907L26.5522 78.308C26.5226 78.308 26.4887 78.3122 26.459 78.3122L26.4548 78.3163Z" fill="#1D1329"/>
  <path d="M35.1097 80.5774L35.0165 80.5648C35.0165 80.5648 34.9869 80.5606 34.9742 80.5564C33.8006 80.3806 32.6101 80.142 31.4239 79.8531C31.1231 79.7861 30.8392 79.7233 30.5765 79.6605C29.1446 79.2418 27.4542 78.7059 26.2552 78.2831C26.2382 78.2747 26.395 77.8477 26.395 77.8477C26.4289 77.856 26.4505 77.86 26.4844 77.8558L26.5433 77.8477L26.5984 77.8686C28.0261 78.4129 29.4962 78.8818 30.9663 79.2628C31.157 79.313 31.3476 79.3591 31.5425 79.4093C32.6101 79.6437 33.9023 79.8991 35.0547 80.1043C35.097 80.1085 35.1352 80.1168 35.1775 80.121L35.1144 80.573L35.1097 80.5774Z" fill="#1D1329"/>
  <path d="M35.9643 80.6903C35.8711 80.6778 35.7779 80.6652 35.6804 80.6527L35.4601 80.6234C35.3839 80.615 35.3119 80.6024 35.2356 80.5899L35.0195 80.5606L35.0831 80.1084L35.1593 80.1168C35.2017 80.121 35.2441 80.1293 35.2864 80.1335L35.5195 80.167C35.5915 80.1754 35.6635 80.1879 35.7313 80.1963L36.0109 80.234L35.9516 80.6903H35.9643Z" fill="#1D1329"/>
  </svg>
  